<svg width="213" height="32" viewBox="0 0 213 32" fill="none" xmlns="http://www.w3.org/2000/svg">
<path d="M23.5263 20.335H24.0829C23.8231 21.5967 23.5263 22.6728 23.2294 23.5263C22.9325 24.3798 22.4873 25.2703 21.9306 26.1609C19.7413 29.7604 16.7727 31.5415 13.0619 31.5415C10.7241 31.5415 8.57188 30.8365 6.56806 29.3893C4.56425 27.9792 2.96862 26.0496 1.78117 23.6376C0.593724 21.2256 0 18.6281 0 15.8079C0 14.138 0.222649 12.5053 0.705049 10.8355C1.18745 9.16561 1.85539 7.6442 2.74597 6.2341C3.63656 4.82401 4.67557 3.59946 5.86301 2.56045C7.64418 1.00192 9.72221 0.222656 12.06 0.222656C12.8393 0.222656 13.5814 0.296876 14.2865 0.482415C14.9915 0.667953 15.6594 0.96481 16.2903 1.33589C16.9211 1.70696 17.5519 2.26358 18.2199 2.89441C18.962 3.56235 19.5186 3.89633 19.8526 3.89633C20.6319 3.89633 21.5967 2.8202 22.747 0.705063H23.3036L23.786 15.1771H23.2294C23.0439 14.138 22.8583 13.2846 22.7099 12.6166C22.5244 11.9487 22.3017 11.2808 22.042 10.5386C21.2998 8.49768 20.4092 6.79072 19.3702 5.34352C18.3312 3.89632 17.218 2.7831 16.0305 2.04094C14.8431 1.29879 13.5814 0.890601 12.3198 0.890601C10.7983 0.890601 9.57379 1.4101 8.60899 2.48623C7.64419 3.56235 6.93914 5.2322 6.49384 7.49576C6.04855 9.75933 5.7888 12.6166 5.7888 16.1047C5.7888 18.1086 5.86301 19.8897 6.04855 21.4483C6.19698 23.0068 6.45674 24.3055 6.79071 25.3817C7.12468 26.4578 7.56997 27.3484 8.08948 28.0534C8.72031 28.9069 9.49957 29.5748 10.4273 30.0201C11.355 30.4654 12.3569 30.6881 13.433 30.6881C14.4349 30.6881 15.3997 30.5025 16.3274 30.1686C17.2551 29.8346 18.1085 29.3151 18.9249 28.6471C19.7413 27.9792 20.4834 27.1257 21.1514 26.1238C21.708 25.3075 22.1533 24.454 22.4873 23.6005C22.8212 22.747 23.1923 21.708 23.5263 20.335Z" fill="white"/>
<path d="M54.1016 0.630859H63.6382L72.2101 23.6376L80.7078 0.630859H89.6878V1.41012H88.8715C87.4614 1.41012 86.4224 1.85542 85.7544 2.746C85.0865 3.63659 84.7525 5.00957 84.7525 6.86496V24.3798C84.7525 26.2352 85.0865 27.571 85.7915 28.4987C86.4595 29.3893 87.4985 29.8346 88.9086 29.8346H89.7249V30.6881H74.9932V29.8346H75.958C77.3681 29.8346 78.37 29.3893 79.075 28.4987C79.7801 27.6081 80.0769 26.2352 80.0769 24.3798V3.93344H80.0027L70.2063 30.6881H69.6497L59.779 4.00766H59.7048V23.415C59.7048 24.7509 59.8904 25.9012 60.2985 26.866C60.7067 27.7937 61.2633 28.5358 62.0426 29.0553C62.8219 29.5749 63.7125 29.8346 64.8257 29.8717V30.7252H54.1387V29.8717H54.3613C55.8456 29.8717 56.996 29.3151 57.8123 28.1648C58.6658 27.0144 59.074 25.493 59.074 23.5634V6.90206C59.074 5.04667 58.74 3.6737 58.0721 2.78311C57.4042 1.89253 56.3651 1.44723 54.955 1.44723H54.1387V0.630859H54.1016Z" fill="white"/>
<path d="M40.1888 0C42.304 0 44.2707 0.445283 46.0519 1.33587C47.833 2.22645 49.3544 3.52522 50.6532 5.26928C51.7664 6.71648 52.5828 8.34923 53.2136 10.1675C53.8445 11.9858 54.1042 13.8041 54.1042 15.6965C54.1042 18.5167 53.5105 21.1143 52.2859 23.5263C51.0614 25.9012 49.4287 27.7936 47.3506 29.2037C45.2726 30.6138 42.9719 31.2818 40.5228 31.2818C38.6303 31.2818 36.8492 30.8736 35.1793 30.0943C33.5095 29.3151 32.0251 28.2018 30.7635 26.7546C29.5018 25.3074 28.4999 23.6376 27.7949 21.708C27.0898 19.7784 26.7188 17.7746 26.7188 15.6965C26.7188 12.9135 27.3496 10.3159 28.5741 7.90393C29.7987 5.49193 31.4314 3.59944 33.5095 2.15224C35.5875 0.705041 37.7768 0 40.1888 0ZM40.6341 0.779252C39.6322 0.779252 38.7045 1.00191 37.8511 1.4472C36.9976 1.89249 36.2554 2.52331 35.6246 3.37679C34.9567 4.26737 34.4 5.3435 33.9547 6.60516C33.5095 7.86682 33.1384 9.23981 32.9157 10.7612C32.6931 12.2826 32.5818 13.9525 32.5818 15.6965C32.5818 17.923 32.7673 19.9268 33.1384 21.7451C33.5095 23.5634 34.029 25.1219 34.734 26.4207C35.4391 27.7194 36.2554 28.7213 37.2202 29.4264C38.185 30.1314 39.2611 30.4654 40.4486 30.4654C42.0442 30.4654 43.4543 29.8717 44.6418 28.6471C45.8292 27.4226 46.7569 25.7156 47.3877 23.452C48.0186 21.1885 48.3525 18.5167 48.3525 15.4368C48.3525 13.433 48.167 11.5405 47.833 9.79643C47.499 8.05237 46.9795 6.53094 46.3487 5.23217C45.6808 3.93341 44.9015 2.89439 43.9738 2.15224C43.5285 1.74406 42.9719 1.41009 42.3782 1.18744C41.7474 0.890578 41.1536 0.779252 40.6341 0.779252Z" fill="white"/>
<path d="M92.5117 0.630859H109.21C110.509 0.630859 111.771 0.816396 112.958 1.15036C114.145 1.48433 115.11 1.92963 115.778 2.48624C116.632 3.15418 117.3 3.93344 117.745 4.89824C118.227 5.82593 118.45 6.82784 118.45 7.90397C118.45 9.64803 117.708 11.1694 116.261 12.4311C115.667 12.9506 115.036 13.3959 114.368 13.7299C113.7 14.0638 112.735 14.472 111.511 14.9173V14.9915C113.069 15.3626 114.368 15.845 115.37 16.4016C118.116 17.9973 119.526 20.2237 119.526 23.0439C119.526 24.6024 119.118 25.9383 118.264 27.0886C117.411 28.239 116.261 29.1296 114.702 29.7604C113.144 30.3912 111.325 30.6881 109.247 30.6881H92.5117V29.8346H93.1797C94.5897 29.8346 95.6288 29.3893 96.2967 28.4987C96.9646 27.6081 97.2986 26.2352 97.2986 24.3798V6.86496C97.2986 5.00957 96.9646 3.59948 96.2967 2.70889C95.6288 1.81831 94.5897 1.37301 93.1797 1.37301H92.5117V0.630859ZM102.123 1.37301V14.5462H107.058C111.103 14.5462 113.144 12.2085 113.144 7.53289C113.144 5.45486 112.698 3.89634 111.845 2.85732C110.991 1.85541 109.655 1.3359 107.837 1.3359H102.123V1.37301ZM102.123 15.3626V29.9088H107.243C109.396 29.9088 111.066 29.278 112.216 28.0163C113.366 26.7547 113.96 24.9364 113.96 22.5986C113.96 20.5948 113.478 18.9992 112.55 17.8488C111.845 16.9211 110.991 16.2532 109.952 15.9192C108.913 15.5853 107.429 15.3626 105.462 15.3626H102.123Z" fill="white"/>
<path d="M133.033 0.371094H133.96L142.94 26.3094C143.237 27.1257 143.571 27.7937 143.942 28.3503C144.313 28.8698 144.722 29.278 145.167 29.5006C145.612 29.7233 146.169 29.8717 146.8 29.8717H147.393V30.7252H134.183V29.8717H135.927C136.78 29.8717 137.411 29.7233 137.819 29.4264C138.228 29.1295 138.413 28.6471 138.413 27.9792C138.413 27.571 138.339 27.0886 138.191 26.532C138.042 25.9754 137.671 24.8993 137.152 23.415C137.114 23.3407 137.077 23.1923 137.003 22.9697C136.929 22.747 136.855 22.5615 136.78 22.3759L136.409 21.2627H126.761L126.019 23.4892C125.797 24.2684 125.648 25.0106 125.648 25.7899C125.648 26.4578 125.797 27.0886 126.056 27.7566C126.316 28.4245 126.687 28.9069 127.132 29.2038C127.429 29.4264 127.689 29.5748 127.912 29.649C128.134 29.7233 128.468 29.7975 128.914 29.7975V30.651H119.637V29.7975C120.305 29.6862 120.861 29.5377 121.232 29.3151C121.603 29.0924 122.086 28.7585 122.568 28.239C123.719 27.0515 124.832 24.8622 125.945 21.5967L133.033 0.371094ZM131.437 7.05048L126.984 20.4463H136.038L131.437 7.05048Z" fill="white"/>
<path d="M149.211 0.630859H158.377L174.222 22.3017V9.35116C174.222 7.75553 174.036 6.38256 173.628 5.19511C173.22 4.00766 172.626 3.11707 171.847 2.48624C171.438 2.15227 171.03 1.89252 170.585 1.74409C170.14 1.59566 169.583 1.48434 168.841 1.41012V0.630859H180.122V1.41012H179.899C178.266 1.41012 177.005 2.11517 176.151 3.48815C175.298 4.86114 174.852 6.86495 174.852 9.49959V30.7994H174.222L154.629 4.34163V22.1904C154.629 23.9345 154.777 25.3075 155.111 26.3465C155.445 27.3855 155.927 28.2019 156.632 28.7956C157.226 29.2409 157.894 29.5377 158.748 29.6862C159.193 29.7975 159.861 29.8717 160.714 29.9088V30.6881H148.84V29.9088C150.064 29.8346 151.066 29.5377 151.808 29.0553C152.551 28.5729 153.144 27.8679 153.515 26.9031C153.886 25.9383 154.072 24.788 154.072 23.3779V6.38255C154.072 5.34353 153.886 4.45296 153.553 3.7108C153.219 2.96865 152.699 2.41203 151.994 2.00385C151.289 1.59566 150.51 1.41012 149.545 1.41012H149.248V0.630859H149.211Z" fill="white"/>
<path d="M181.309 0.630859H195.706V1.37301H195.038C193.665 1.37301 192.626 1.81831 191.959 2.746C191.291 3.67369 190.919 5.04667 190.919 6.90205V19.964L201.718 8.5719C202.423 7.79264 202.905 7.12471 203.165 6.64231C203.425 6.15991 203.536 5.56618 203.536 4.89824C203.536 3.82212 203.202 2.96865 202.497 2.33781C201.792 1.70698 200.864 1.37301 199.677 1.37301H199.12V0.630859H212.442V1.37301H212.108C210.253 1.37301 207.655 3.19129 204.278 6.79074L199.788 11.5034L206.653 25.4188C207.432 26.9773 208.212 28.0905 209.065 28.7956C209.919 29.5006 210.883 29.8346 211.997 29.8346H212.405V30.6881H198.378V29.8346H199.12C201.198 29.8346 202.237 29.2038 202.237 27.905C202.237 27.6824 202.2 27.4226 202.089 27.1628C201.978 26.9031 201.792 26.4578 201.532 25.8641L196.3 15.2513L190.919 20.9288V24.3798C190.919 26.2352 191.253 27.571 191.959 28.4987C192.664 29.3893 193.703 29.8346 195.038 29.8346H195.706V30.6881H181.309V29.8346H181.939C183.35 29.8346 184.389 29.3893 185.094 28.4987C185.799 27.6081 186.133 26.2352 186.133 24.3798V6.86496C186.133 5.00957 185.799 3.63658 185.094 2.70889C184.389 1.7812 183.35 1.3359 181.939 1.3359H181.309V0.630859Z" fill="white"/>
</svg>
