<svg width="817" height="790" viewBox="0 0 817 790" fill="none" xmlns="http://www.w3.org/2000/svg">
<path d="M491.935 275.826C459.916 156.33 337.089 85.4152 217.592 117.434C98.0959 149.453 27.1814 272.281 59.2004 391.777C91.2194 511.273 214.047 582.188 333.543 550.169C453.04 518.15 523.954 395.322 491.935 275.826Z" stroke="#8684B9" stroke-width="2" stroke-linecap="round"/>
<path d="M709.267 217.592C677.248 98.0953 554.421 27.1808 434.924 59.1998C315.428 91.2188 244.513 214.046 276.532 333.543C308.551 453.039 431.379 523.954 550.875 491.935C670.372 459.916 741.286 337.088 709.267 217.592Z" stroke="#8684B9" stroke-width="2" stroke-linecap="round"/>
<path d="M649.224 426.242C617.205 306.746 494.378 235.831 374.881 267.85C255.385 299.869 184.47 422.697 216.489 542.193C248.508 661.689 371.336 732.604 490.832 700.585C610.329 668.566 681.243 545.739 649.224 426.242Z" stroke="#8684B9" stroke-width="2" stroke-linecap="round"/>
<path d="M493.236 274.794C492.479 271.945 491.64 269.137 490.781 266.348C454.018 256.7 414.325 256.195 374.985 266.732C335.232 277.39 300.802 297.99 273.656 325.135C274.273 327.792 274.909 330.449 275.626 333.106C297.256 413.806 359.882 472.573 435.086 493C490.003 437.698 514.856 355.494 493.236 274.794Z" fill="url(#paint0_radial)"/>
<path d="M114.148 288V271.09H111.523V288H114.148ZM116.961 288H119.492V280.816C119.492 278.906 120.641 277.641 122.422 277.641C124.18 277.641 125.047 278.66 125.047 280.512V288H127.59V280.02C127.59 277.195 126.031 275.461 123.313 275.461C121.414 275.461 120.102 276.328 119.434 277.734H119.375V275.672H116.961V288ZM130.777 272.754V275.672H128.984V277.676H130.777V284.754C130.777 287.133 131.75 288.082 134.246 288.082C134.809 288.082 135.371 288.035 135.652 287.965V285.961C135.488 285.996 135.078 286.02 134.82 286.02C133.789 286.02 133.32 285.539 133.32 284.473V277.676H135.664V275.672H133.32V272.754H130.777ZM145.613 284.379C145.273 285.457 144.207 286.184 142.766 286.184C140.738 286.184 139.449 284.766 139.449 282.621V282.469H148.156V281.602C148.156 277.863 146.023 275.449 142.602 275.449C139.121 275.449 136.895 278.027 136.895 281.895C136.895 285.785 139.086 288.234 142.707 288.234C145.531 288.234 147.664 286.629 148.016 284.379H145.613ZM142.602 277.488C144.371 277.488 145.566 278.812 145.625 280.699H139.461C139.59 278.836 140.832 277.488 142.602 277.488ZM150.125 288H152.656V280.617C152.656 278.871 153.664 277.781 155.293 277.781C155.785 277.781 156.23 277.84 156.43 277.922V275.566C156.242 275.531 155.926 275.473 155.563 275.473C154.109 275.473 153.008 276.328 152.598 277.77H152.539V275.672H150.125V288ZM158 288H160.531V280.816C160.531 278.906 161.68 277.641 163.461 277.641C165.219 277.641 166.086 278.66 166.086 280.512V288H168.629V280.02C168.629 277.195 167.07 275.461 164.352 275.461C162.453 275.461 161.141 276.328 160.473 277.734H160.414V275.672H158V288ZM174.688 288.211C176.305 288.211 177.863 287.344 178.578 285.973H178.637V288H181.063V279.504C181.063 277.031 179.152 275.449 176.164 275.449C173.117 275.449 171.219 277.09 171.078 279.316H173.469C173.691 278.215 174.605 277.512 176.07 277.512C177.617 277.512 178.543 278.332 178.543 279.703V280.652L175.168 280.852C172.238 281.016 170.586 282.34 170.586 284.496C170.586 286.711 172.273 288.211 174.688 288.211ZM175.391 286.207C174.031 286.207 173.141 285.504 173.141 284.426C173.141 283.371 173.996 282.703 175.508 282.598L178.543 282.41V283.383C178.543 284.988 177.16 286.207 175.391 286.207ZM184.262 272.754V275.672H182.469V277.676H184.262V284.754C184.262 287.133 185.234 288.082 187.73 288.082C188.293 288.082 188.855 288.035 189.137 287.965V285.961C188.973 285.996 188.563 286.02 188.305 286.02C187.273 286.02 186.805 285.539 186.805 284.473V277.676H189.148V275.672H186.805V272.754H184.262ZM192.582 273.68C193.391 273.68 194.035 273.023 194.035 272.227C194.035 271.418 193.391 270.773 192.582 270.773C191.773 270.773 191.117 271.418 191.117 272.227C191.117 273.023 191.773 273.68 192.582 273.68ZM191.316 288H193.848V275.672H191.316V288ZM201.734 288.234C205.262 288.234 207.582 285.809 207.582 281.836C207.582 277.875 205.25 275.449 201.734 275.449C198.219 275.449 195.887 277.875 195.887 281.836C195.887 285.809 198.207 288.234 201.734 288.234ZM201.734 286.148C199.754 286.148 198.465 284.578 198.465 281.836C198.465 279.105 199.754 277.535 201.734 277.535C203.715 277.535 205.004 279.105 205.004 281.836C205.004 284.578 203.727 286.148 201.734 286.148ZM209.539 288H212.07V280.816C212.07 278.906 213.219 277.641 215 277.641C216.758 277.641 217.625 278.66 217.625 280.512V288H220.168V280.02C220.168 277.195 218.609 275.461 215.891 275.461C213.992 275.461 212.68 276.328 212.012 277.734H211.953V275.672H209.539V288ZM226.227 288.211C227.844 288.211 229.402 287.344 230.117 285.973H230.176V288H232.602V279.504C232.602 277.031 230.691 275.449 227.703 275.449C224.656 275.449 222.758 277.09 222.617 279.316H225.008C225.23 278.215 226.145 277.512 227.609 277.512C229.156 277.512 230.082 278.332 230.082 279.703V280.652L226.707 280.852C223.777 281.016 222.125 282.34 222.125 284.496C222.125 286.711 223.813 288.211 226.227 288.211ZM226.93 286.207C225.57 286.207 224.68 285.504 224.68 284.426C224.68 283.371 225.535 282.703 227.047 282.598L230.082 282.41V283.383C230.082 284.988 228.699 286.207 226.93 286.207ZM235.156 288H237.687V271.09H235.156V288ZM157.578 317V300.09H154.531L149.07 313.566H148.977L143.504 300.09H140.469V317H142.859V304.555H142.941L148.051 317H149.996L155.094 304.555H155.176V317H157.578ZM165.688 317.234C169.215 317.234 171.535 314.809 171.535 310.836C171.535 306.875 169.203 304.449 165.688 304.449C162.172 304.449 159.84 306.875 159.84 310.836C159.84 314.809 162.16 317.234 165.688 317.234ZM165.688 315.148C163.707 315.148 162.418 313.578 162.418 310.836C162.418 308.105 163.707 306.535 165.688 306.535C167.668 306.535 168.957 308.105 168.957 310.836C168.957 313.578 167.68 315.148 165.688 315.148ZM173.492 317H176.023V309.816C176.023 307.906 177.172 306.641 178.953 306.641C180.711 306.641 181.578 307.66 181.578 309.512V317H184.121V309.02C184.121 306.195 182.563 304.461 179.844 304.461C177.945 304.461 176.633 305.328 175.965 306.734H175.906V304.672H173.492V317ZM194.738 313.379C194.398 314.457 193.332 315.184 191.891 315.184C189.863 315.184 188.574 313.766 188.574 311.621V311.469H197.281V310.602C197.281 306.863 195.148 304.449 191.727 304.449C188.246 304.449 186.02 307.027 186.02 310.895C186.02 314.785 188.211 317.234 191.832 317.234C194.656 317.234 196.789 315.629 197.141 313.379H194.738ZM191.727 306.488C193.496 306.488 194.691 307.812 194.75 309.699H188.586C188.715 307.836 189.957 306.488 191.727 306.488ZM200.41 321.594C202.965 321.594 204.184 320.633 205.238 317.645L209.855 304.672H207.184L204.066 314.703H204.02L200.902 304.672H198.16L202.613 317.012C202.613 317.023 202.391 317.75 202.391 317.773C202.004 319.039 201.371 319.531 200.199 319.531C199.988 319.531 199.566 319.531 199.379 319.484V321.535C199.566 321.57 200.199 321.594 200.41 321.594ZM140.703 346V331.352H145.871V329.09H132.898V331.352H138.078V346H140.703ZM145.414 346H147.945V338.617C147.945 336.871 148.953 335.781 150.582 335.781C151.074 335.781 151.52 335.84 151.719 335.922V333.566C151.531 333.531 151.215 333.473 150.852 333.473C149.398 333.473 148.297 334.328 147.887 335.77H147.828V333.672H145.414V346ZM156.641 346.211C158.258 346.211 159.816 345.344 160.531 343.973H160.59V346H163.016V337.504C163.016 335.031 161.105 333.449 158.117 333.449C155.07 333.449 153.172 335.09 153.031 337.316H155.422C155.645 336.215 156.559 335.512 158.023 335.512C159.57 335.512 160.496 336.332 160.496 337.703V338.652L157.121 338.852C154.191 339.016 152.539 340.34 152.539 342.496C152.539 344.711 154.227 346.211 156.641 346.211ZM157.344 344.207C155.984 344.207 155.094 343.504 155.094 342.426C155.094 341.371 155.949 340.703 157.461 340.598L160.496 340.41V341.383C160.496 342.988 159.113 344.207 157.344 344.207ZM165.477 346H168.008V338.816C168.008 336.906 169.156 335.641 170.938 335.641C172.695 335.641 173.563 336.66 173.563 338.512V346H176.105V338.02C176.105 335.195 174.547 333.461 171.828 333.461C169.93 333.461 168.617 334.328 167.949 335.734H167.891V333.672H165.477V346ZM178.332 337.164C178.332 338.957 179.492 340.082 181.836 340.621L183.84 341.09C185.188 341.395 185.645 341.863 185.645 342.66C185.645 343.668 184.707 344.301 183.184 344.301C181.637 344.301 180.758 343.668 180.523 342.379H178.016C178.25 344.723 180.102 346.234 183.184 346.234C186.09 346.234 188.188 344.687 188.188 342.437C188.188 340.656 187.227 339.672 184.707 339.086L182.703 338.629C181.367 338.324 180.805 337.797 180.805 337.023C180.805 336.039 181.719 335.371 183.09 335.371C184.508 335.371 185.387 336.121 185.527 337.316H187.906C187.824 335.043 185.961 333.449 183.09 333.449C180.254 333.449 178.332 334.961 178.332 337.164ZM190.895 346H193.438V335.676H195.898V333.695H193.402V332.535C193.402 331.445 193.918 330.895 195.02 330.895C195.359 330.895 195.699 330.918 195.945 330.965V329.09C195.617 329.031 195.043 328.973 194.527 328.973C192.02 328.973 190.895 330.098 190.895 332.488V333.695H189.195V335.676H190.895V346ZM205.543 342.379C205.203 343.457 204.137 344.184 202.695 344.184C200.668 344.184 199.379 342.766 199.379 340.621V340.469H208.086V339.602C208.086 335.863 205.953 333.449 202.531 333.449C199.051 333.449 196.824 336.027 196.824 339.895C196.824 343.785 199.016 346.234 202.637 346.234C205.461 346.234 207.594 344.629 207.945 342.379H205.543ZM202.531 335.488C204.301 335.488 205.496 336.812 205.555 338.699H199.391C199.52 336.836 200.762 335.488 202.531 335.488ZM210.055 346H212.586V338.617C212.586 336.871 213.594 335.781 215.223 335.781C215.715 335.781 216.16 335.84 216.359 335.922V333.566C216.172 333.531 215.855 333.473 215.492 333.473C214.039 333.473 212.938 334.328 212.527 335.77H212.469V333.672H210.055V346Z" fill="#8684B9"/>
<path d="M422.11 571.727H414.001V566.477H421.677V564.297H414.001V559.352H422.11V557.09H411.376V574H422.11V571.727ZM424.595 574H427.126V557.09H424.595V574ZM437.895 570.379C437.555 571.457 436.489 572.184 435.048 572.184C433.02 572.184 431.731 570.766 431.731 568.621V568.469H440.438V567.602C440.438 563.863 438.305 561.449 434.884 561.449C431.403 561.449 429.177 564.027 429.177 567.895C429.177 571.785 431.368 574.234 434.989 574.234C437.813 574.234 439.946 572.629 440.298 570.379H437.895ZM434.884 563.488C436.653 563.488 437.848 564.812 437.907 566.699H431.743C431.872 564.836 433.114 563.488 434.884 563.488ZM452.989 565.914C452.766 563.488 450.833 561.449 447.657 561.449C444.153 561.449 441.856 563.922 441.856 567.836C441.856 571.82 444.153 574.234 447.68 574.234C450.645 574.234 452.743 572.453 453.012 569.828H450.575C450.282 571.258 449.262 572.113 447.704 572.113C445.735 572.113 444.434 570.543 444.434 567.836C444.434 565.187 445.723 563.559 447.68 563.559C449.333 563.559 450.317 564.602 450.575 565.914H452.989ZM455.544 558.754V561.672H453.751V563.676H455.544V570.754C455.544 573.133 456.516 574.082 459.012 574.082C459.575 574.082 460.137 574.035 460.419 573.965V571.961C460.255 571.996 459.845 572.02 459.587 572.02C458.555 572.02 458.087 571.539 458.087 570.473V563.676H460.43V561.672H458.087V558.754H455.544ZM462.516 574H465.048V566.617C465.048 564.871 466.055 563.781 467.684 563.781C468.177 563.781 468.622 563.84 468.821 563.922V561.566C468.634 561.531 468.317 561.473 467.954 561.473C466.501 561.473 465.399 562.328 464.989 563.77H464.93V561.672H462.516V574ZM475.149 574.234C478.677 574.234 480.997 571.809 480.997 567.836C480.997 563.875 478.665 561.449 475.149 561.449C471.634 561.449 469.302 563.875 469.302 567.836C469.302 571.809 471.622 574.234 475.149 574.234ZM475.149 572.148C473.169 572.148 471.88 570.578 471.88 567.836C471.88 565.105 473.169 563.535 475.149 563.535C477.13 563.535 478.419 565.105 478.419 567.836C478.419 570.578 477.141 572.148 475.149 572.148ZM482.954 574H485.485V566.816C485.485 564.906 486.634 563.641 488.415 563.641C490.173 563.641 491.04 564.66 491.04 566.512V574H493.583V566.02C493.583 563.195 492.024 561.461 489.305 561.461C487.407 561.461 486.095 562.328 485.427 563.734H485.368V561.672H482.954V574ZM497.38 559.68C498.188 559.68 498.833 559.023 498.833 558.227C498.833 557.418 498.188 556.773 497.38 556.773C496.571 556.773 495.915 557.418 495.915 558.227C495.915 559.023 496.571 559.68 497.38 559.68ZM496.114 574H498.645V561.672H496.114V574ZM511.817 565.914C511.595 563.488 509.661 561.449 506.485 561.449C502.981 561.449 500.684 563.922 500.684 567.836C500.684 571.82 502.981 574.234 506.509 574.234C509.473 574.234 511.571 572.453 511.841 569.828H509.403C509.11 571.258 508.091 572.113 506.532 572.113C504.563 572.113 503.262 570.543 503.262 567.836C503.262 565.187 504.552 563.559 506.509 563.559C508.161 563.559 509.145 564.602 509.403 565.914H511.817ZM408.493 586.09V603H414.458C419.497 603 422.462 599.859 422.462 594.516C422.462 589.184 419.485 586.09 414.458 586.09H408.493ZM411.118 588.352H414.212C417.786 588.352 419.778 590.555 419.778 594.539C419.778 598.535 417.798 600.727 414.212 600.727H411.118V588.352ZM429.962 603.234C433.489 603.234 435.809 600.809 435.809 596.836C435.809 592.875 433.477 590.449 429.962 590.449C426.446 590.449 424.114 592.875 424.114 596.836C424.114 600.809 426.434 603.234 429.962 603.234ZM429.962 601.148C427.981 601.148 426.692 599.578 426.692 596.836C426.692 594.105 427.981 592.535 429.962 592.535C431.942 592.535 433.231 594.105 433.231 596.836C433.231 599.578 431.954 601.148 429.962 601.148ZM448.348 594.914C448.126 592.488 446.192 590.449 443.016 590.449C439.512 590.449 437.216 592.922 437.216 596.836C437.216 600.82 439.512 603.234 443.04 603.234C446.005 603.234 448.102 601.453 448.372 598.828H445.934C445.641 600.258 444.622 601.113 443.063 601.113C441.095 601.113 439.794 599.543 439.794 596.836C439.794 594.187 441.083 592.559 443.04 592.559C444.692 592.559 445.677 593.602 445.934 594.914H448.348ZM460.735 590.672H458.204V597.855C458.204 599.777 457.102 601.043 455.274 601.043C453.528 601.043 452.637 600.035 452.637 598.16V590.672H450.106V598.652C450.106 601.477 451.747 603.223 454.43 603.223C456.317 603.223 457.571 602.391 458.251 600.914H458.309V603H460.735V590.672ZM463.243 603H465.774V595.383C465.774 593.801 466.841 592.629 468.341 592.629C469.77 592.629 470.673 593.531 470.673 594.949V603H473.157V595.301C473.157 593.742 474.2 592.629 475.7 592.629C477.2 592.629 478.055 593.543 478.055 595.137V603H480.598V594.527C480.598 592.078 479.005 590.461 476.567 590.461C474.809 590.461 473.356 591.375 472.723 592.875H472.665C472.173 591.34 470.93 590.461 469.22 590.461C467.555 590.461 466.266 591.375 465.716 592.746H465.657V590.672H463.243V603ZM491.216 599.379C490.876 600.457 489.809 601.184 488.368 601.184C486.341 601.184 485.052 599.766 485.052 597.621V597.469H493.759V596.602C493.759 592.863 491.626 590.449 488.204 590.449C484.723 590.449 482.497 593.027 482.497 596.895C482.497 600.785 484.688 603.234 488.309 603.234C491.134 603.234 493.266 601.629 493.618 599.379H491.216ZM488.204 592.488C489.973 592.488 491.169 593.812 491.227 595.699H485.063C485.192 593.836 486.434 592.488 488.204 592.488ZM495.727 603H498.259V595.816C498.259 593.906 499.407 592.641 501.188 592.641C502.946 592.641 503.813 593.66 503.813 595.512V603H506.356V595.02C506.356 592.195 504.798 590.461 502.079 590.461C500.18 590.461 498.868 591.328 498.2 592.734H498.141V590.672H495.727V603ZM509.544 587.754V590.672H507.751V592.676H509.544V599.754C509.544 602.133 510.516 603.082 513.012 603.082C513.575 603.082 514.137 603.035 514.419 602.965V600.961C514.255 600.996 513.845 601.02 513.587 601.02C512.555 601.02 512.087 600.539 512.087 599.473V592.676H514.43V590.672H512.087V587.754H509.544ZM411.071 632V615.09H408.024L402.563 628.566H402.47L396.997 615.09H393.962V632H396.352V619.555H396.434L401.544 632H403.489L408.587 619.555H408.669V632H411.071ZM417.165 632.211C418.782 632.211 420.341 631.344 421.055 629.973H421.114V632H423.54V623.504C423.54 621.031 421.63 619.449 418.641 619.449C415.595 619.449 413.696 621.09 413.555 623.316H415.946C416.169 622.215 417.083 621.512 418.548 621.512C420.095 621.512 421.02 622.332 421.02 623.703V624.652L417.645 624.852C414.716 625.016 413.063 626.34 413.063 628.496C413.063 630.711 414.751 632.211 417.165 632.211ZM417.868 630.207C416.509 630.207 415.618 629.504 415.618 628.426C415.618 627.371 416.473 626.703 417.985 626.598L421.02 626.41V627.383C421.02 628.988 419.637 630.207 417.868 630.207ZM426.001 632H428.532V624.816C428.532 622.906 429.68 621.641 431.462 621.641C433.22 621.641 434.087 622.66 434.087 624.512V632H436.63V624.02C436.63 621.195 435.071 619.461 432.352 619.461C430.454 619.461 429.141 620.328 428.473 621.734H428.415V619.672H426.001V632ZM442.688 632.211C444.305 632.211 445.864 631.344 446.579 629.973H446.637V632H449.063V623.504C449.063 621.031 447.153 619.449 444.165 619.449C441.118 619.449 439.22 621.09 439.079 623.316H441.47C441.692 622.215 442.606 621.512 444.071 621.512C445.618 621.512 446.544 622.332 446.544 623.703V624.652L443.169 624.852C440.239 625.016 438.587 626.34 438.587 628.496C438.587 630.711 440.274 632.211 442.688 632.211ZM443.391 630.207C442.032 630.207 441.141 629.504 441.141 628.426C441.141 627.371 441.997 626.703 443.509 626.598L446.544 626.41V627.383C446.544 628.988 445.161 630.207 443.391 630.207ZM456.798 636.641C460.313 636.641 462.587 634.719 462.587 631.777V619.672H460.126V621.781H460.079C459.329 620.352 457.899 619.473 456.153 619.473C452.989 619.473 450.973 621.91 450.973 625.789C450.973 629.633 453.001 632.047 456.095 632.047C457.852 632.047 459.305 631.168 459.997 629.832H460.044V631.859C460.044 633.547 458.872 634.672 456.891 634.672C455.45 634.672 454.325 633.992 453.962 632.961H451.419C451.735 635.094 453.891 636.641 456.798 636.641ZM456.774 629.949C454.829 629.949 453.563 628.379 453.563 625.801C453.563 623.234 454.829 621.605 456.774 621.605C458.755 621.605 460.055 623.27 460.055 625.801C460.055 628.344 458.755 629.949 456.774 629.949ZM473.262 628.379C472.923 629.457 471.856 630.184 470.415 630.184C468.387 630.184 467.098 628.766 467.098 626.621V626.469H475.805V625.602C475.805 621.863 473.673 619.449 470.251 619.449C466.77 619.449 464.544 622.027 464.544 625.895C464.544 629.785 466.735 632.234 470.356 632.234C473.18 632.234 475.313 630.629 475.665 628.379H473.262ZM470.251 621.488C472.02 621.488 473.216 622.812 473.274 624.699H467.11C467.239 622.836 468.481 621.488 470.251 621.488ZM477.774 632H480.305V624.383C480.305 622.801 481.372 621.629 482.872 621.629C484.302 621.629 485.204 622.531 485.204 623.949V632H487.688V624.301C487.688 622.742 488.731 621.629 490.231 621.629C491.731 621.629 492.587 622.543 492.587 624.137V632H495.13V623.527C495.13 621.078 493.536 619.461 491.098 619.461C489.341 619.461 487.887 620.375 487.255 621.875H487.196C486.704 620.34 485.462 619.461 483.751 619.461C482.087 619.461 480.798 620.375 480.247 621.746H480.188V619.672H477.774V632ZM505.747 628.379C505.407 629.457 504.341 630.184 502.899 630.184C500.872 630.184 499.583 628.766 499.583 626.621V626.469H508.29V625.602C508.29 621.863 506.157 619.449 502.735 619.449C499.255 619.449 497.028 622.027 497.028 625.895C497.028 629.785 499.22 632.234 502.841 632.234C505.665 632.234 507.798 630.629 508.149 628.379H505.747ZM502.735 621.488C504.505 621.488 505.7 622.812 505.759 624.699H499.595C499.723 622.836 500.966 621.488 502.735 621.488ZM510.259 632H512.79V624.816C512.79 622.906 513.938 621.641 515.72 621.641C517.477 621.641 518.345 622.66 518.345 624.512V632H520.887V624.02C520.887 621.195 519.329 619.461 516.61 619.461C514.712 619.461 513.399 620.328 512.731 621.734H512.673V619.672H510.259V632ZM524.075 616.754V619.672H522.282V621.676H524.075V628.754C524.075 631.133 525.048 632.082 527.544 632.082C528.106 632.082 528.669 632.035 528.95 631.965V629.961C528.786 629.996 528.376 630.02 528.118 630.02C527.087 630.02 526.618 629.539 526.618 628.473V621.676H528.962V619.672H526.618V616.754H524.075Z" fill="#8684B9"/>
<path d="M514.02 163.09V180H516.645V174.223H520.277C523.594 174.223 525.926 171.949 525.926 168.645C525.926 165.352 523.641 163.09 520.359 163.09H514.02ZM516.645 165.305H519.668C521.941 165.305 523.242 166.523 523.242 168.656C523.242 170.789 521.941 172.02 519.656 172.02H516.645V165.305ZM530.543 180.211C532.16 180.211 533.719 179.344 534.434 177.973H534.492V180H536.918V171.504C536.918 169.031 535.008 167.449 532.02 167.449C528.973 167.449 527.074 169.09 526.934 171.316H529.324C529.547 170.215 530.461 169.512 531.926 169.512C533.473 169.512 534.398 170.332 534.398 171.703V172.652L531.023 172.852C528.094 173.016 526.441 174.34 526.441 176.496C526.441 178.711 528.129 180.211 530.543 180.211ZM531.246 178.207C529.887 178.207 528.996 177.504 528.996 176.426C528.996 175.371 529.852 174.703 531.363 174.598L534.398 174.41V175.383C534.398 176.988 533.016 178.207 531.246 178.207ZM540.586 184.594C543.141 184.594 544.359 183.633 545.414 180.645L550.031 167.672H547.359L544.242 177.703H544.195L541.078 167.672H538.336L542.789 180.012C542.789 180.023 542.566 180.75 542.566 180.773C542.18 182.039 541.547 182.531 540.375 182.531C540.164 182.531 539.742 182.531 539.555 182.484V184.535C539.742 184.57 540.375 184.594 540.586 184.594ZM551.52 180H554.051V172.383C554.051 170.801 555.117 169.629 556.617 169.629C558.047 169.629 558.949 170.531 558.949 171.949V180H561.434V172.301C561.434 170.742 562.477 169.629 563.977 169.629C565.477 169.629 566.332 170.543 566.332 172.137V180H568.875V171.527C568.875 169.078 567.281 167.461 564.844 167.461C563.086 167.461 561.633 168.375 561 169.875H560.941C560.449 168.34 559.207 167.461 557.496 167.461C555.832 167.461 554.543 168.375 553.992 169.746H553.934V167.672H551.52V180ZM579.492 176.379C579.152 177.457 578.086 178.184 576.645 178.184C574.617 178.184 573.328 176.766 573.328 174.621V174.469L582.035 174.469V173.602C582.035 169.863 579.902 167.449 576.48 167.449C573 167.449 570.773 170.027 570.773 173.895C570.773 177.785 572.965 180.234 576.586 180.234C579.41 180.234 581.543 178.629 581.895 176.379H579.492ZM576.48 169.488C578.25 169.488 579.445 170.812 579.504 172.699L573.34 172.699C573.469 170.836 574.711 169.488 576.48 169.488ZM584.004 180H586.535V172.816C586.535 170.906 587.684 169.641 589.465 169.641C591.223 169.641 592.09 170.66 592.09 172.512V180H594.633V172.02C594.633 169.195 593.074 167.461 590.355 167.461C588.457 167.461 587.145 168.328 586.477 169.734H586.418V167.672H584.004V180ZM597.82 164.754V167.672H596.027V169.676H597.82V176.754C597.82 179.133 598.793 180.082 601.289 180.082C601.852 180.082 602.414 180.035 602.695 179.965V177.961C602.531 177.996 602.121 178.02 601.863 178.02C600.832 178.02 600.363 177.539 600.363 176.473V169.676H602.707V167.672H600.363V164.754H597.82ZM513.891 204.359C514.055 207.371 516.598 209.281 520.418 209.281C524.355 209.281 526.863 207.277 526.863 204.09C526.863 201.629 525.41 200.211 521.871 199.461L520.02 199.074C517.828 198.605 516.961 197.785 516.961 196.555C516.961 195.008 518.414 194.047 520.395 194.047C522.445 194.047 523.84 195.09 524.004 196.789H526.547C526.465 193.836 524.016 191.809 520.43 191.809C516.832 191.809 514.289 193.801 514.289 196.695C514.289 199.133 515.824 200.703 519.211 201.418L521.051 201.805C523.313 202.297 524.203 203.117 524.203 204.43C524.203 205.941 522.668 207.043 520.523 207.043C518.273 207.043 516.68 206.035 516.445 204.359H513.891ZM530.156 213.594C532.711 213.594 533.93 212.633 534.984 209.645L539.602 196.672H536.93L533.813 206.703H533.766L530.648 196.672H527.906L532.359 209.012C532.359 209.023 532.137 209.75 532.137 209.773C531.75 211.039 531.117 211.531 529.945 211.531C529.734 211.531 529.313 211.531 529.125 211.484V213.535C529.313 213.57 529.945 213.594 530.156 213.594ZM540.844 200.164C540.844 201.957 542.004 203.082 544.348 203.621L546.352 204.09C547.699 204.395 548.156 204.863 548.156 205.66C548.156 206.668 547.219 207.301 545.695 207.301C544.148 207.301 543.27 206.668 543.035 205.379H540.527C540.762 207.723 542.613 209.234 545.695 209.234C548.602 209.234 550.699 207.687 550.699 205.437C550.699 203.656 549.738 202.672 547.219 202.086L545.215 201.629C543.879 201.324 543.316 200.797 543.316 200.023C543.316 199.039 544.23 198.371 545.602 198.371C547.02 198.371 547.898 199.121 548.039 200.316H550.418C550.336 198.043 548.473 196.449 545.602 196.449C542.766 196.449 540.844 197.961 540.844 200.164ZM553.406 193.754V196.672H551.613V198.676H553.406V205.754C553.406 208.133 554.379 209.082 556.875 209.082C557.438 209.082 558 209.035 558.281 208.965V206.961C558.117 206.996 557.707 207.02 557.449 207.02C556.418 207.02 555.949 206.539 555.949 205.473V198.676H558.293V196.672H555.949V193.754H553.406ZM568.242 205.379C567.902 206.457 566.836 207.184 565.395 207.184C563.367 207.184 562.078 205.766 562.078 203.621V203.469H570.785V202.602C570.785 198.863 568.652 196.449 565.23 196.449C561.75 196.449 559.523 199.027 559.523 202.895C559.523 206.785 561.715 209.234 565.336 209.234C568.16 209.234 570.293 207.629 570.645 205.379H568.242ZM565.23 198.488C567 198.488 568.195 199.812 568.254 201.699H562.09C562.219 199.836 563.461 198.488 565.23 198.488ZM572.754 209H575.285V201.383C575.285 199.801 576.352 198.629 577.852 198.629C579.281 198.629 580.184 199.531 580.184 200.949V209H582.668V201.301C582.668 199.742 583.711 198.629 585.211 198.629C586.711 198.629 587.566 199.543 587.566 201.137V209L590.109 209V200.527C590.109 198.078 588.516 196.461 586.078 196.461C584.32 196.461 582.867 197.375 582.234 198.875H582.176C581.684 197.34 580.441 196.461 578.73 196.461C577.066 196.461 575.777 197.375 575.227 198.746H575.168V196.672H572.754V209ZM592.336 200.164C592.336 201.957 593.496 203.082 595.84 203.621L597.844 204.09C599.191 204.395 599.648 204.863 599.648 205.66C599.648 206.668 598.711 207.301 597.188 207.301C595.641 207.301 594.762 206.668 594.527 205.379H592.02C592.254 207.723 594.105 209.234 597.188 209.234C600.094 209.234 602.191 207.687 602.191 205.437C602.191 203.656 601.23 202.672 598.711 202.086L596.707 201.629C595.371 201.324 594.809 200.797 594.809 200.023C594.809 199.039 595.723 198.371 597.094 198.371C598.512 198.371 599.391 199.121 599.531 200.316H601.91C601.828 198.043 599.965 196.449 597.094 196.449C594.258 196.449 592.336 197.961 592.336 200.164Z" fill="#8684B9"/>
<path d="M319.836 350.837C321.23 350.837 322.415 351.034 323.391 351.429C324.367 351.824 325.32 352.382 326.249 353.102C326.505 353.311 326.725 353.416 326.911 353.416C327.376 353.416 327.678 352.719 327.817 351.325H328.619C328.526 352.905 328.48 355.716 328.48 359.759H327.678C327.469 358.04 327.19 356.727 326.842 355.821C326.493 354.914 325.901 354.124 325.064 353.451C324.483 352.893 323.809 352.475 323.043 352.196C322.276 351.894 321.474 351.743 320.638 351.743C318.291 351.743 316.549 352.893 315.41 355.193C314.272 357.47 313.702 360.317 313.702 363.732C313.702 367.124 314.295 369.959 315.48 372.236C316.665 374.513 318.431 375.651 320.777 375.651C321.567 375.651 322.346 375.512 323.112 375.233C323.902 374.931 324.565 374.501 325.099 373.944C325.959 373.293 326.551 372.48 326.876 371.504C327.225 370.528 327.492 369.099 327.678 367.217H328.48C328.48 371.423 328.526 374.35 328.619 376H327.817C327.748 375.256 327.643 374.734 327.504 374.432C327.388 374.106 327.213 373.944 326.981 373.944C326.795 373.944 326.551 374.037 326.249 374.223C325.204 374.966 324.204 375.535 323.252 375.93C322.299 376.302 321.149 376.488 319.801 376.488C317.339 376.488 315.178 375.988 313.319 374.989C311.483 373.99 310.054 372.55 309.032 370.668C308.01 368.762 307.499 366.497 307.499 363.871C307.499 361.316 308.021 359.05 309.067 357.075C310.113 355.1 311.565 353.567 313.424 352.475C315.306 351.383 317.443 350.837 319.836 350.837ZM344.41 350.837C346.873 350.837 349.022 351.336 350.857 352.335C352.716 353.334 354.157 354.787 355.179 356.692C356.201 358.574 356.713 360.828 356.713 363.453C356.713 366.009 356.19 368.274 355.144 370.249C354.099 372.224 352.635 373.758 350.753 374.85C348.894 375.942 346.768 376.488 344.375 376.488C341.912 376.488 339.751 375.988 337.892 374.989C336.057 373.99 334.628 372.55 333.606 370.668C332.583 368.762 332.072 366.497 332.072 363.871C332.072 361.316 332.595 359.05 333.64 357.075C334.686 355.1 336.138 353.567 337.997 352.475C339.879 351.383 342.017 350.837 344.41 350.837ZM344.27 351.464C342.992 351.464 341.866 351.987 340.89 353.032C339.914 354.055 339.159 355.495 338.624 357.354C338.113 359.213 337.858 361.339 337.858 363.732C337.858 366.148 338.148 368.274 338.729 370.11C339.333 371.946 340.135 373.363 341.134 374.362C342.156 375.361 343.283 375.861 344.514 375.861C345.792 375.861 346.919 375.349 347.895 374.327C348.871 373.282 349.614 371.829 350.126 369.971C350.66 368.112 350.927 365.986 350.927 363.593C350.927 361.176 350.625 359.05 350.021 357.215C349.44 355.379 348.639 353.962 347.616 352.963C346.617 351.964 345.502 351.464 344.27 351.464ZM389.096 352.022C388.306 352.068 387.736 352.161 387.388 352.301C387.039 352.44 386.795 352.707 386.656 353.102C386.54 353.497 386.482 354.136 386.482 355.019V372.306C386.482 373.189 386.54 373.828 386.656 374.223C386.795 374.618 387.039 374.885 387.388 375.024C387.76 375.164 388.329 375.256 389.096 375.303V376C387.818 375.93 385.994 375.895 383.624 375.895C381.138 375.895 379.302 375.93 378.117 376V375.303C378.954 375.256 379.558 375.164 379.93 375.024C380.325 374.885 380.592 374.618 380.731 374.223C380.871 373.828 380.94 373.189 380.94 372.306V354.078L372.541 376.035H371.983L362.573 353.59V370.284C362.573 371.655 362.643 372.666 362.782 373.316C362.922 373.944 363.224 374.408 363.688 374.71C364.153 374.989 364.908 375.187 365.954 375.303V376C365.048 375.93 363.793 375.895 362.19 375.895C360.912 375.895 359.901 375.93 359.158 376V375.303C359.924 375.187 360.482 374.989 360.831 374.71C361.202 374.432 361.446 373.99 361.563 373.386C361.702 372.782 361.772 371.887 361.772 370.702V355.019C361.772 354.136 361.702 353.497 361.563 353.102C361.446 352.707 361.202 352.44 360.831 352.301C360.482 352.161 359.924 352.068 359.158 352.022V351.325C359.901 351.394 360.912 351.429 362.19 351.429C364.327 351.429 366.163 351.394 367.696 351.325L374.737 368.298L381.149 351.429H383.624C385.994 351.429 387.818 351.394 389.096 351.325V352.022ZM403.83 363.035C406.85 363.267 409.069 363.964 410.486 365.126C411.904 366.288 412.612 367.659 412.612 369.239C412.612 371.4 411.764 373.072 410.068 374.257C408.372 375.419 406.014 376 402.993 376C402.319 376 401.75 375.988 401.286 375.965C399.752 375.919 398.253 375.895 396.79 375.895C394.396 375.895 392.607 375.93 391.422 376V375.303C392.189 375.256 392.747 375.164 393.095 375.024C393.467 374.885 393.711 374.618 393.827 374.223C393.967 373.828 394.036 373.189 394.036 372.306V355.019C394.036 354.136 393.967 353.497 393.827 353.102C393.711 352.707 393.467 352.44 393.095 352.301C392.747 352.161 392.189 352.068 391.422 352.022V351.325C392.607 351.394 394.373 351.429 396.72 351.429L400.588 351.394C401.053 351.371 401.588 351.36 402.192 351.36C404.98 351.36 407.106 351.859 408.57 352.858C410.057 353.857 410.8 355.182 410.8 356.831C410.8 358.179 410.208 359.434 409.023 360.595C407.861 361.757 406.13 362.547 403.83 362.965V363.035ZM401.739 352.022C401.111 352.022 400.647 352.103 400.345 352.266C400.066 352.428 399.868 352.719 399.752 353.137C399.636 353.555 399.578 354.183 399.578 355.019V362.896H401.076C402.587 362.896 403.644 362.384 404.248 361.362C404.852 360.317 405.154 358.934 405.154 357.215C405.154 355.472 404.875 354.171 404.318 353.311C403.783 352.452 402.924 352.022 401.739 352.022ZM401.983 375.198C405.212 375.198 406.827 373.165 406.827 369.099C406.827 367.264 406.362 365.87 405.433 364.917C404.504 363.964 403.04 363.488 401.042 363.488H399.578V372.306C399.578 373.142 399.636 373.758 399.752 374.153C399.868 374.548 400.089 374.827 400.414 374.989C400.763 375.129 401.286 375.198 401.983 375.198ZM434.472 373.072C434.774 373.839 435.122 374.397 435.517 374.745C435.912 375.094 436.296 375.28 436.668 375.303V376C435.273 375.93 433.508 375.895 431.37 375.895C429 375.895 427.234 375.93 426.072 376V375.303C426.955 375.256 427.583 375.152 427.955 374.989C428.326 374.803 428.512 374.49 428.512 374.048C428.512 373.63 428.373 373.072 428.094 372.375L426.003 366.66H418.405L417.499 369.064C416.848 370.737 416.523 372.027 416.523 372.933C416.523 373.793 416.779 374.397 417.29 374.745C417.824 375.071 418.603 375.256 419.625 375.303V376C418.045 375.93 416.604 375.895 415.303 375.895C414.234 375.895 413.351 375.93 412.654 376V375.303C413.793 375.094 414.792 373.874 415.652 371.643L423.598 351.255C423.854 351.278 424.26 351.29 424.818 351.29C425.375 351.29 425.77 351.278 426.003 351.255L434.472 373.072ZM425.759 365.963L422.308 356.552L418.684 365.963H425.759ZM459.895 352.022C459.128 352.138 458.559 352.335 458.187 352.614C457.839 352.893 457.595 353.334 457.455 353.939C457.339 354.543 457.281 355.437 457.281 356.622V376.07L456.445 376.035L455.504 376.07L440.378 356.901V370.284C440.378 371.655 440.448 372.666 440.587 373.316C440.726 373.944 441.029 374.408 441.493 374.71C441.958 374.989 442.713 375.187 443.759 375.303V376C442.852 375.93 441.598 375.895 439.995 375.895C438.717 375.895 437.706 375.93 436.962 376V375.303C437.729 375.187 438.287 374.989 438.635 374.71C439.007 374.432 439.251 373.99 439.367 373.386C439.507 372.782 439.576 371.887 439.576 370.702V355.019C439.576 354.136 439.507 353.497 439.367 353.102C439.251 352.707 439.007 352.44 438.635 352.301C438.287 352.161 437.729 352.068 436.962 352.022V351.325C437.706 351.394 438.717 351.429 439.995 351.429C441.156 351.429 442.155 351.394 442.992 351.325L456.48 367.949V357.04C456.48 355.67 456.41 354.67 456.271 354.043C456.131 353.393 455.829 352.928 455.364 352.649C454.9 352.347 454.145 352.138 453.099 352.022V351.325C454.005 351.394 455.26 351.429 456.863 351.429C458.164 351.429 459.175 351.394 459.895 351.325V352.022ZM483.618 373.177C483.967 373.711 484.327 374.141 484.699 374.467C485.07 374.792 485.547 375.071 486.128 375.303V376C484.501 375.93 482.689 375.895 480.691 375.895C479.157 375.895 477.682 375.93 476.264 376V375.303C476.915 375.256 477.38 375.187 477.659 375.094C477.961 375.001 478.112 374.838 478.112 374.606C478.112 374.42 477.984 374.13 477.728 373.735L472.675 365.544C472.21 364.801 471.815 364.301 471.49 364.046C471.188 363.79 470.769 363.639 470.235 363.593V372.306C470.235 373.189 470.293 373.828 470.409 374.223C470.549 374.618 470.793 374.885 471.141 375.024C471.49 375.164 472.059 375.256 472.849 375.303V376C471.594 375.93 469.84 375.895 467.586 375.895C465.1 375.895 463.265 375.93 462.08 376V375.303C462.846 375.256 463.404 375.164 463.753 375.024C464.124 374.885 464.368 374.618 464.484 374.223C464.624 373.828 464.694 373.189 464.694 372.306V355.019C464.694 354.136 464.624 353.497 464.484 353.102C464.368 352.707 464.124 352.44 463.753 352.301C463.404 352.161 462.846 352.068 462.08 352.022V351.325C463.265 351.394 465.1 351.429 467.586 351.429C469.84 351.429 471.594 351.394 472.849 351.325V352.022C472.059 352.068 471.49 352.161 471.141 352.301C470.793 352.44 470.549 352.707 470.409 353.102C470.293 353.497 470.235 354.136 470.235 355.019V362.861C471.164 362.814 472.013 362.535 472.779 362.024C473.546 361.513 474.417 360.7 475.393 359.585L477.449 357.11C478.518 355.879 479.053 354.798 479.053 353.869C479.053 353.311 478.82 352.87 478.356 352.544C477.914 352.219 477.287 352.033 476.474 351.987V351.325C478.17 351.394 479.889 351.429 481.632 351.429C482.979 351.429 484.071 351.394 484.908 351.325V351.987C483.049 352.428 481.365 353.544 479.854 355.333L475.498 360.526L483.618 373.177Z" fill="white"/>
<defs>
<radialGradient id="paint0_radial" cx="0" cy="0" r="1" gradientUnits="userSpaceOnUse" gradientTransform="translate(304.947 297.089) rotate(56.5993) scale(173.355 171.448)">
<stop stop-color="#2AAAE1"/>
<stop offset="1" stop-color="#1B1871"/>
</radialGradient>
</defs>
</svg>
