<svg width="710" height="710" viewBox="0 0 710 710" fill="none" xmlns="http://www.w3.org/2000/svg">
<path d="M430 54L383 328" stroke="#333333" stroke-width="2" stroke-linecap="round" stroke-dasharray="10 10"/>
<path d="M327 383L278 656" stroke="#333333" stroke-width="2" stroke-linecap="round" stroke-dasharray="10 10"/>
<path d="M621.558 197.283L385 355" stroke="#333333" stroke-width="2" stroke-linecap="round" stroke-dasharray="10 10"/>
<path d="M325 355L88.4414 513.717" stroke="#333333" stroke-width="2" stroke-linecap="round" stroke-dasharray="10 10"/>
<path d="M657 429L383 381" stroke="#333333" stroke-width="2" stroke-linecap="round" stroke-dasharray="10 10"/>
<path d="M327 328L55 281" stroke="#333333" stroke-width="2" stroke-linecap="round" stroke-dasharray="10 10"/>
<path d="M513.798 621.535L355 385" stroke="#333333" stroke-width="2" stroke-linecap="round" stroke-dasharray="10 10"/>
<path d="M355 325L195.84 89.3223" stroke="#333333" stroke-width="2" stroke-linecap="round" stroke-dasharray="10 10"/>
<circle cx="355" cy="355" r="325" stroke="#333333" stroke-width="2"/>
<path d="M355 30C265.606 30 184.641 66.0924 125.883 124.5" stroke="url(#paint0_linear)" stroke-width="4"/>
<rect x="325" width="60" height="60" rx="8" fill="url(#paint1_radial)"/>
<path d="M366.618 13H344.367V46.9993H366.618V13Z" stroke="white" stroke-width="1.23787"/>
<path d="M353.127 19.0488H348.562V23.6591H353.127V19.0488Z" stroke="white" stroke-width="1.23787"/>
<path d="M362.443 19.0488H357.879V23.6591H362.443V19.0488Z" stroke="white" stroke-width="1.23787"/>
<path d="M353.127 26.9258H348.562V31.5357H353.127V26.9258Z" stroke="white" stroke-width="1.23787"/>
<path d="M362.443 26.9258H357.879V31.5357H362.443V26.9258Z" stroke="white" stroke-width="1.23787"/>
<path d="M340 47H371" stroke="white" stroke-width="1.23787"/>
<path d="M357.832 41.5254H353.172V47.0001H357.832V41.5254Z" stroke="white" stroke-width="1.23787"/>
<rect x="326" y="651" width="58" height="58" rx="7" fill="#191919" stroke="#333333" stroke-width="2"/>
<path d="M366.618 663H344.367V696.999H366.618V663Z" stroke="#333333" stroke-width="1.23787"/>
<path d="M353.127 669.049H348.562V673.659H353.127V669.049Z" stroke="#333333" stroke-width="1.23787"/>
<path d="M362.443 669.049H357.879V673.659H362.443V669.049Z" stroke="#333333" stroke-width="1.23787"/>
<path d="M353.127 676.926H348.562V681.536H353.127V676.926Z" stroke="#333333" stroke-width="1.23787"/>
<path d="M362.443 676.926H357.879V681.536H362.443V676.926Z" stroke="#333333" stroke-width="1.23787"/>
<path d="M340 697H371" stroke="#333333" stroke-width="1.23787"/>
<path d="M357.832 691.525H353.172V697H357.832V691.525Z" stroke="#333333" stroke-width="1.23787"/>
<rect x="555.809" y="96.1895" width="58" height="58" rx="7" fill="#191919" stroke="#333333" stroke-width="2"/>
<path d="M596.427 108.189H574.176V142.189H596.427V108.189Z" stroke="#333333" stroke-width="1.23787"/>
<path d="M582.936 114.238H578.371V118.849H582.936V114.238Z" stroke="#333333" stroke-width="1.23787"/>
<path d="M592.252 114.238H587.688V118.849H592.252V114.238Z" stroke="#333333" stroke-width="1.23787"/>
<path d="M582.936 122.115H578.371V126.725H582.936V122.115Z" stroke="#333333" stroke-width="1.23787"/>
<path d="M592.252 122.115H587.688V126.725H592.252V122.115Z" stroke="#333333" stroke-width="1.23787"/>
<path d="M569.809 142.189H600.809" stroke="#333333" stroke-width="1.23787"/>
<path d="M587.641 136.715H582.98V142.19H587.641V136.715Z" stroke="#333333" stroke-width="1.23787"/>
<rect x="96.1914" y="555.809" width="58" height="58" rx="7" fill="#191919" stroke="#333333" stroke-width="2"/>
<path d="M136.81 567.809H114.559V601.808H136.81V567.809Z" stroke="#333333" stroke-width="1.23787"/>
<path d="M123.318 573.857H118.754V578.468H123.318V573.857Z" stroke="#333333" stroke-width="1.23787"/>
<path d="M132.635 573.857H128.07V578.468H132.635V573.857Z" stroke="#333333" stroke-width="1.23787"/>
<path d="M123.318 581.734H118.754V586.344H123.318V581.734Z" stroke="#333333" stroke-width="1.23787"/>
<path d="M132.635 581.734H128.07V586.344H132.635V581.734Z" stroke="#333333" stroke-width="1.23787"/>
<path d="M110.191 601.809H141.191" stroke="#333333" stroke-width="1.23787"/>
<path d="M128.023 596.334H123.363V601.809H128.023V596.334Z" stroke="#333333" stroke-width="1.23787"/>
<rect x="651" y="325.998" width="58" height="58" rx="7" fill="#191919" stroke="#333333" stroke-width="2"/>
<path d="M691.618 337.998H669.367V371.997H691.618V337.998Z" stroke="#333333" stroke-width="1.23787"/>
<path d="M678.127 344.047H673.562V348.657H678.127V344.047Z" stroke="#333333" stroke-width="1.23787"/>
<path d="M687.443 344.047H682.879V348.657H687.443V344.047Z" stroke="#333333" stroke-width="1.23787"/>
<path d="M678.127 351.924H673.562V356.534H678.127V351.924Z" stroke="#333333" stroke-width="1.23787"/>
<path d="M687.443 351.924H682.879V356.534H687.443V351.924Z" stroke="#333333" stroke-width="1.23787"/>
<path d="M665 371.998H696" stroke="#333333" stroke-width="1.23787"/>
<path d="M682.832 366.523H678.172V371.998H682.832V366.523Z" stroke="#333333" stroke-width="1.23787"/>
<rect x="1" y="326" width="58" height="58" rx="7" fill="#191919" stroke="#333333" stroke-width="2"/>
<path d="M41.6185 338H19.3672L19.3672 371.999H41.6185L41.6185 338Z" stroke="#333333" stroke-width="1.23787"/>
<path d="M28.127 344.049H23.5625V348.659H28.127V344.049Z" stroke="#333333" stroke-width="1.23787"/>
<path d="M37.4434 344.049H32.8789V348.659H37.4434V344.049Z" stroke="#333333" stroke-width="1.23787"/>
<path d="M28.127 351.926H23.5625V356.536H28.127V351.926Z" stroke="#333333" stroke-width="1.23787"/>
<path d="M37.4434 351.926H32.8789V356.536H37.4434V351.926Z" stroke="#333333" stroke-width="1.23787"/>
<path d="M15 372H46" stroke="#333333" stroke-width="1.23787"/>
<path d="M32.8319 366.525H28.1719V372H32.8319V366.525Z" stroke="#333333" stroke-width="1.23787"/>
<rect x="555.812" y="555.809" width="58" height="58" rx="7" fill="#191919" stroke="#333333" stroke-width="2"/>
<path d="M596.431 567.809H574.18V601.808H596.431V567.809Z" stroke="#333333" stroke-width="1.23787"/>
<path d="M582.94 573.857H578.375V578.468H582.94V573.857Z" stroke="#333333" stroke-width="1.23787"/>
<path d="M592.256 573.857H587.691V578.468H592.256V573.857Z" stroke="#333333" stroke-width="1.23787"/>
<path d="M582.94 581.734H578.375V586.344H582.94V581.734Z" stroke="#333333" stroke-width="1.23787"/>
<path d="M592.256 581.734H587.691V586.344H592.256V581.734Z" stroke="#333333" stroke-width="1.23787"/>
<path d="M569.812 601.809H600.812" stroke="#333333" stroke-width="1.23787"/>
<path d="M587.644 596.334H582.984V601.809H587.644V596.334Z" stroke="#333333" stroke-width="1.23787"/>
<rect x="95.1914" y="95.1895" width="60" height="60" rx="8" fill="url(#paint2_radial)"/>
<path d="M136.81 108.189L114.559 108.189L114.559 142.189H136.81V108.189Z" stroke="white" stroke-width="1.23787"/>
<path d="M123.318 114.238H118.754V118.849H123.318V114.238Z" stroke="white" stroke-width="1.23787"/>
<path d="M132.635 114.238H128.07V118.849H132.635V114.238Z" stroke="white" stroke-width="1.23787"/>
<path d="M123.318 122.115H118.754V126.725H123.318V122.115Z" stroke="white" stroke-width="1.23787"/>
<path d="M132.635 122.115H128.07V126.725H132.635V122.115Z" stroke="white" stroke-width="1.23787"/>
<path d="M110.191 142.189H141.191" stroke="white" stroke-width="1.23787"/>
<path d="M128.023 136.715H123.363V142.19H128.023V136.715Z" stroke="white" stroke-width="1.23787"/>
<path d="M386.141 247L393.662 258.822C394.286 259.803 395.613 260.047 396.545 259.352L407.778 250.977" stroke="#333333" stroke-width="2" stroke-linecap="round" stroke-linejoin="round"/>
<path d="M297 258.961L310.753 261.64C311.895 261.862 312.985 261.068 313.122 259.913L314.776 245.999" stroke="#333333" stroke-width="2" stroke-linecap="round" stroke-linejoin="round"/>
<path d="M246 325.648L257.801 318.094C258.78 317.467 259.02 316.14 258.323 315.209L249.916 304" stroke="#333333" stroke-width="2" stroke-linecap="round" stroke-linejoin="round"/>
<path d="M451.809 297L448.65 310.651C448.388 311.784 449.144 312.901 450.293 313.079L464.14 315.219" stroke="#333333" stroke-width="2" stroke-linecap="round" stroke-linejoin="round"/>
<path d="M464.824 384.258L452.927 391.66C451.939 392.274 451.682 393.598 452.368 394.537L460.629 405.854" stroke="#333333" stroke-width="2" stroke-linecap="round" stroke-linejoin="round"/>
<path d="M412.781 451.629L399.05 448.837C397.911 448.606 396.815 449.391 396.668 450.545L394.9 464.445" stroke="#333333" stroke-width="2" stroke-linecap="round" stroke-linejoin="round"/>
<path d="M323.676 463.439L316.041 451.69C315.407 450.715 314.079 450.484 313.153 451.188L302.001 459.671" stroke="#333333" stroke-width="2" stroke-linecap="round" stroke-linejoin="round"/>
<path d="M257.637 412.812L260.567 399.11C260.81 397.973 260.035 396.869 258.883 396.711L245.002 394.803" stroke="#333333" stroke-width="2" stroke-linecap="round" stroke-linejoin="round"/>
<path d="M469.469 62.3301L482.601 57.4443C483.691 57.0389 484.207 55.7926 483.722 54.7357L477.878 42.0006" stroke="#333333" stroke-width="2" stroke-linecap="round" stroke-linejoin="round"/>
<path d="M231.969 667.75L226.125 655.015C225.64 653.958 226.155 652.712 227.245 652.306L240.378 647.421" stroke="#333333" stroke-width="2" stroke-linecap="round" stroke-linejoin="round"/>
<path d="M643.793 231.527L656.482 237.471C657.535 237.964 658.785 237.459 659.199 236.372L664.188 223.279" stroke="#333333" stroke-width="2" stroke-linecap="round" stroke-linejoin="round"/>
<path d="M45.6562 486.475L50.6452 473.381C51.0592 472.294 52.3095 471.789 53.3625 472.282L66.0513 478.226" stroke="#333333" stroke-width="2" stroke-linecap="round" stroke-linejoin="round"/>
<path d="M647.344 469.547L652.23 482.679C652.635 483.769 653.881 484.285 654.938 483.8L667.673 477.956" stroke="#333333" stroke-width="2" stroke-linecap="round" stroke-linejoin="round"/>
<path d="M42.1719 232.045L54.907 226.201C55.9639 225.716 57.2101 226.232 57.6156 227.321L62.5013 240.454" stroke="#333333" stroke-width="2" stroke-linecap="round" stroke-linejoin="round"/>
<path d="M478.148 643.873L472.205 656.562C471.711 657.615 472.217 658.865 473.304 659.279L486.397 664.268" stroke="#333333" stroke-width="2" stroke-linecap="round" stroke-linejoin="round"/>
<path d="M242.68 61.6914L229.586 56.7024C228.499 56.2884 227.994 55.0381 228.487 53.9851L234.431 41.2964" stroke="#90A63E" stroke-width="4" stroke-linecap="round" stroke-linejoin="round"/>
<path d="M447.195 39.3027C447.195 47.587 440.48 54.3027 432.195 54.3027C423.911 54.3027 417.195 47.587 417.195 39.3027C417.195 31.0185 423.911 24.3027 432.195 24.3027C440.48 24.3027 447.195 31.0185 447.195 39.3027Z" fill="#191919" stroke="#333333" stroke-width="2"/>
<path d="M436.029 39.4922C435.279 38.8101 434.279 38.4312 433.237 38.4312H433.133V34.6796H433.237C434.091 34.6796 434.841 35.1343 435.174 35.8543C435.383 36.2901 435.924 36.4985 436.404 36.3091C436.883 36.1196 437.112 35.6269 436.904 35.1912C436.279 33.8269 434.841 32.9554 433.237 32.9554H433.133V31.1554C433.133 30.6817 432.716 30.3027 432.195 30.3027C431.674 30.3027 431.258 30.6817 431.258 31.1554V32.9743H431.154C430.091 32.9743 429.091 33.3533 428.362 34.0164C427.612 34.6796 427.195 35.589 427.195 36.5743C427.195 38.5638 428.966 40.1743 431.154 40.1743H431.258V43.9448H431.154C430.299 43.9448 429.549 43.4901 429.216 42.7701C429.008 42.3343 428.466 42.1259 427.987 42.3154C427.508 42.5048 427.279 42.9975 427.487 43.4333C428.112 44.7975 429.549 45.6691 431.154 45.6691H431.258V47.4501C431.258 47.9238 431.674 48.3027 432.195 48.3027C432.716 48.3027 433.133 47.9238 433.133 47.4501V45.6312H433.237C435.424 45.6312 437.195 44.0206 437.195 42.0312C437.195 41.0648 436.779 40.1743 436.029 39.4922ZM431.112 38.4501C429.966 38.4501 429.029 37.6164 429.029 36.5743C429.029 36.0627 429.237 35.589 429.633 35.248C430.029 34.888 430.549 34.6985 431.091 34.6985H431.195V38.4501H431.112ZM433.237 43.9259H433.133V40.1554H433.237C433.779 40.1554 434.299 40.3448 434.716 40.7238C435.112 41.0648 435.32 41.5385 435.32 42.0501C435.299 43.0733 434.362 43.9259 433.237 43.9259Z" fill="#333333"/>
<path d="M292.805 670.699C292.805 678.983 286.089 685.699 277.805 685.699C269.52 685.699 262.805 678.983 262.805 670.699C262.805 662.415 269.52 655.699 277.805 655.699C286.089 655.699 292.805 662.415 292.805 670.699Z" fill="#191919" stroke="#333333" stroke-width="2"/>
<path d="M281.638 670.889C280.888 670.207 279.888 669.828 278.846 669.828H278.742V666.076H278.846C279.701 666.076 280.451 666.531 280.784 667.251C280.992 667.687 281.534 667.895 282.013 667.706C282.492 667.516 282.721 667.023 282.513 666.588C281.888 665.223 280.451 664.352 278.846 664.352H278.742V662.552C278.742 662.078 278.326 661.699 277.805 661.699C277.284 661.699 276.867 662.078 276.867 662.552V664.371H276.763C275.701 664.371 274.701 664.75 273.971 665.413C273.221 666.076 272.805 666.986 272.805 667.971C272.805 669.96 274.576 671.571 276.763 671.571H276.867V675.341H276.763C275.909 675.341 275.159 674.887 274.826 674.167C274.617 673.731 274.076 673.522 273.596 673.712C273.117 673.901 272.888 674.394 273.096 674.83C273.721 676.194 275.159 677.066 276.763 677.066H276.867V678.847C276.867 679.32 277.284 679.699 277.805 679.699C278.326 679.699 278.742 679.32 278.742 678.847V677.028H278.846C281.034 677.028 282.805 675.417 282.805 673.428C282.805 672.461 282.388 671.571 281.638 670.889ZM276.721 669.847C275.576 669.847 274.638 669.013 274.638 667.971C274.638 667.459 274.846 666.986 275.242 666.644C275.638 666.284 276.159 666.095 276.701 666.095H276.805V669.847H276.721ZM278.846 675.322H278.742V671.552H278.846C279.388 671.552 279.909 671.741 280.326 672.12C280.721 672.461 280.93 672.935 280.93 673.447C280.909 674.47 279.971 675.322 278.846 675.322Z" fill="#333333"/>
<path d="M650.172 190.295C650.172 198.579 643.456 205.295 635.172 205.295C626.888 205.295 620.172 198.579 620.172 190.295C620.172 182.011 626.888 175.295 635.172 175.295C643.456 175.295 650.172 182.011 650.172 190.295Z" fill="#191919" stroke="#333333" stroke-width="2"/>
<path d="M639.005 190.484C638.255 189.802 637.255 189.423 636.214 189.423H636.109V185.672H636.214C637.068 185.672 637.818 186.127 638.151 186.847C638.359 187.282 638.901 187.491 639.38 187.301C639.859 187.112 640.089 186.619 639.88 186.183C639.255 184.819 637.818 183.948 636.214 183.948H636.109V182.148C636.109 181.674 635.693 181.295 635.172 181.295C634.651 181.295 634.234 181.674 634.234 182.148V183.967H634.13C633.068 183.967 632.068 184.345 631.339 185.009C630.589 185.672 630.172 186.581 630.172 187.567C630.172 189.556 631.943 191.167 634.13 191.167H634.234V194.937H634.13C633.276 194.937 632.526 194.482 632.193 193.762C631.984 193.327 631.443 193.118 630.964 193.308C630.484 193.497 630.255 193.99 630.464 194.425C631.089 195.79 632.526 196.661 634.13 196.661H634.234V198.442C634.234 198.916 634.651 199.295 635.172 199.295C635.693 199.295 636.109 198.916 636.109 198.442V196.623H636.214C638.401 196.623 640.172 195.013 640.172 193.023C640.172 192.057 639.755 191.167 639.005 190.484ZM634.089 189.442C632.943 189.442 632.005 188.609 632.005 187.567C632.005 187.055 632.214 186.581 632.609 186.24C633.005 185.88 633.526 185.691 634.068 185.691H634.172V189.442H634.089ZM636.214 194.918H636.109V191.148H636.214C636.755 191.148 637.276 191.337 637.693 191.716C638.089 192.057 638.297 192.531 638.297 193.042C638.276 194.065 637.339 194.918 636.214 194.918Z" fill="#333333"/>
<path d="M89.8281 519.707C89.8281 527.991 83.1124 534.707 74.8281 534.707C66.5439 534.707 59.8281 527.991 59.8281 519.707C59.8281 511.423 66.5439 504.707 74.8281 504.707C83.1124 504.707 89.8281 511.423 89.8281 519.707Z" fill="#191919" stroke="#333333" stroke-width="2"/>
<path d="M78.6615 519.897C77.9115 519.214 76.9115 518.835 75.8698 518.835H75.7656V515.084H75.8698C76.724 515.084 77.474 515.539 77.8073 516.259C78.0156 516.694 78.5573 516.903 79.0365 516.713C79.5156 516.524 79.7448 516.031 79.5365 515.595C78.9115 514.231 77.474 513.36 75.8698 513.36H75.7656V511.56C75.7656 511.086 75.349 510.707 74.8281 510.707C74.3073 510.707 73.8906 511.086 73.8906 511.56V513.379H73.7865C72.724 513.379 71.724 513.758 70.9948 514.421C70.2448 515.084 69.8281 515.993 69.8281 516.979C69.8281 518.968 71.599 520.579 73.7865 520.579H73.8906V524.349H73.7865C72.9323 524.349 72.1823 523.894 71.849 523.174C71.6406 522.739 71.099 522.53 70.6198 522.72C70.1406 522.909 69.9115 523.402 70.1198 523.838C70.7448 525.202 72.1823 526.073 73.7865 526.073H73.8906V527.854C73.8906 528.328 74.3073 528.707 74.8281 528.707C75.349 528.707 75.7656 528.328 75.7656 527.854V526.035H75.8698C78.0573 526.035 79.8281 524.425 79.8281 522.435C79.8281 521.469 79.4115 520.579 78.6615 519.897ZM73.7448 518.854C72.599 518.854 71.6615 518.021 71.6615 516.979C71.6615 516.467 71.8698 515.993 72.2656 515.652C72.6615 515.292 73.1823 515.103 73.724 515.103H73.8281V518.854H73.7448ZM75.8698 524.33H75.7656V520.56H75.8698C76.4115 520.56 76.9323 520.749 77.349 521.128C77.7448 521.469 77.9531 521.943 77.9531 522.454C77.9323 523.478 76.9948 524.33 75.8698 524.33Z" fill="#333333"/>
<path d="M686.434 429.436C686.434 437.72 679.718 444.436 671.434 444.436C663.149 444.436 656.434 437.72 656.434 429.436C656.434 421.151 663.149 414.436 671.434 414.436C679.718 414.436 686.434 421.151 686.434 429.436Z" fill="#191919" stroke="#333333" stroke-width="2"/>
<path d="M675.267 429.625C674.517 428.943 673.517 428.564 672.475 428.564H672.371V424.812H672.475C673.329 424.812 674.079 425.267 674.413 425.987C674.621 426.423 675.163 426.631 675.642 426.442C676.121 426.252 676.35 425.76 676.142 425.324C675.517 423.96 674.079 423.088 672.475 423.088H672.371V421.288C672.371 420.814 671.954 420.436 671.434 420.436C670.913 420.436 670.496 420.814 670.496 421.288V423.107H670.392C669.329 423.107 668.329 423.486 667.6 424.149C666.85 424.812 666.434 425.722 666.434 426.707C666.434 428.697 668.204 430.307 670.392 430.307H670.496V434.078H670.392C669.538 434.078 668.788 433.623 668.454 432.903C668.246 432.467 667.704 432.259 667.225 432.448C666.746 432.638 666.517 433.13 666.725 433.566C667.35 434.93 668.788 435.802 670.392 435.802H670.496V437.583C670.496 438.057 670.913 438.436 671.434 438.436C671.954 438.436 672.371 438.057 672.371 437.583V435.764H672.475C674.663 435.764 676.434 434.153 676.434 432.164C676.434 431.198 676.017 430.307 675.267 429.625ZM670.35 428.583C669.204 428.583 668.267 427.749 668.267 426.707C668.267 426.196 668.475 425.722 668.871 425.381C669.267 425.021 669.788 424.831 670.329 424.831H670.434V428.583H670.35ZM672.475 434.059H672.371V430.288H672.475C673.017 430.288 673.538 430.478 673.954 430.857C674.35 431.198 674.559 431.671 674.559 432.183C674.538 433.206 673.6 434.059 672.475 434.059Z" fill="#333333"/>
<path d="M53.5664 280.764C53.5664 289.048 46.8507 295.764 38.5664 295.764C30.2821 295.764 23.5664 289.048 23.5664 280.764C23.5664 272.479 30.2821 265.764 38.5664 265.764C46.8507 265.764 53.5664 272.479 53.5664 280.764Z" fill="#191919" stroke="#333333" stroke-width="2"/>
<path d="M42.3997 280.953C41.6497 280.271 40.6497 279.892 39.6081 279.892H39.5039V276.141H39.6081C40.4622 276.141 41.2122 276.595 41.5456 277.315C41.7539 277.751 42.2956 277.959 42.7747 277.77C43.2539 277.581 43.4831 277.088 43.2747 276.652C42.6497 275.288 41.2122 274.416 39.6081 274.416H39.5039V272.616C39.5039 272.143 39.0872 271.764 38.5664 271.764C38.0456 271.764 37.6289 272.143 37.6289 272.616V274.435H37.5247C36.4622 274.435 35.4622 274.814 34.7331 275.477C33.9831 276.141 33.5664 277.05 33.5664 278.035C33.5664 280.025 35.3372 281.635 37.5247 281.635H37.6289V285.406H37.5247C36.6706 285.406 35.9206 284.951 35.5872 284.231C35.3789 283.795 34.8372 283.587 34.3581 283.776C33.8789 283.966 33.6497 284.458 33.8581 284.894C34.4831 286.258 35.9206 287.13 37.5247 287.13H37.6289V288.911C37.6289 289.385 38.0456 289.764 38.5664 289.764C39.0872 289.764 39.5039 289.385 39.5039 288.911V287.092H39.6081C41.7956 287.092 43.5664 285.482 43.5664 283.492C43.5664 282.526 43.1497 281.635 42.3997 280.953ZM37.4831 279.911C36.3372 279.911 35.3997 279.077 35.3997 278.035C35.3997 277.524 35.6081 277.05 36.0039 276.709C36.3997 276.349 36.9206 276.159 37.4622 276.159H37.5664V279.911H37.4831ZM39.6081 285.387H39.5039V281.616H39.6081C40.1497 281.616 40.6706 281.806 41.0872 282.185C41.4831 282.526 41.6914 282.999 41.6914 283.511C41.6706 284.534 40.7331 285.387 39.6081 285.387Z" fill="#333333"/>
<path d="M536.215 634.436C536.215 642.72 529.499 649.436 521.215 649.436C512.931 649.436 506.215 642.72 506.215 634.436C506.215 626.151 512.931 619.436 521.215 619.436C529.499 619.436 536.215 626.151 536.215 634.436Z" fill="#191919" stroke="#333333" stroke-width="2"/>
<path d="M525.048 634.625C524.298 633.943 523.298 633.564 522.257 633.564H522.152V629.812H522.257C523.111 629.812 523.861 630.267 524.194 630.987C524.402 631.423 524.944 631.631 525.423 631.442C525.902 631.252 526.132 630.76 525.923 630.324C525.298 628.96 523.861 628.088 522.257 628.088H522.152V626.288C522.152 625.814 521.736 625.436 521.215 625.436C520.694 625.436 520.277 625.814 520.277 626.288V628.107H520.173C519.111 628.107 518.111 628.486 517.382 629.149C516.632 629.812 516.215 630.722 516.215 631.707C516.215 633.697 517.986 635.307 520.173 635.307H520.277V639.078H520.173C519.319 639.078 518.569 638.623 518.236 637.903C518.027 637.467 517.486 637.259 517.007 637.448C516.527 637.638 516.298 638.13 516.507 638.566C517.132 639.93 518.569 640.802 520.173 640.802H520.277V642.583C520.277 643.057 520.694 643.436 521.215 643.436C521.736 643.436 522.152 643.057 522.152 642.583V640.764H522.257C524.444 640.764 526.215 639.153 526.215 637.164C526.215 636.198 525.798 635.307 525.048 634.625ZM520.132 633.583C518.986 633.583 518.048 632.749 518.048 631.707C518.048 631.196 518.257 630.722 518.652 630.381C519.048 630.021 519.569 629.831 520.111 629.831H520.215V633.583H520.132ZM522.257 639.059H522.152V635.288H522.257C522.798 635.288 523.319 635.478 523.736 635.857C524.132 636.198 524.34 636.671 524.34 637.183C524.319 638.206 523.382 639.059 522.257 639.059Z" fill="#333333"/>
<path d="M203.781 75.7656C203.781 84.0499 197.066 90.7656 188.781 90.7656C180.497 90.7656 173.781 84.0499 173.781 75.7656C173.781 67.4814 180.497 60.7656 188.781 60.7656C197.066 60.7656 203.781 67.4814 203.781 75.7656Z" fill="white" stroke="#2DAE5F" stroke-width="2"/>
<path d="M192.615 75.9551C191.865 75.273 190.865 74.894 189.823 74.894H189.719V71.1425H189.823C190.677 71.1425 191.427 71.5972 191.76 72.3172C191.969 72.753 192.51 72.9614 192.99 72.7719C193.469 72.5825 193.698 72.0898 193.49 71.654C192.865 70.2898 191.427 69.4183 189.823 69.4183H189.719V67.6183C189.719 67.1446 189.302 66.7656 188.781 66.7656C188.26 66.7656 187.844 67.1446 187.844 67.6183V69.4372H187.74C186.677 69.4372 185.677 69.8162 184.948 70.4793C184.198 71.1425 183.781 72.0519 183.781 73.0372C183.781 75.0267 185.552 76.6372 187.74 76.6372H187.844V80.4077H187.74C186.885 80.4077 186.135 79.953 185.802 79.233C185.594 78.7972 185.052 78.5888 184.573 78.7783C184.094 78.9677 183.865 79.4604 184.073 79.8962C184.698 81.2604 186.135 82.1319 187.74 82.1319H187.844V83.913C187.844 84.3867 188.26 84.7656 188.781 84.7656C189.302 84.7656 189.719 84.3867 189.719 83.913V82.094H189.823C192.01 82.094 193.781 80.4835 193.781 78.494C193.781 77.5277 193.365 76.6372 192.615 75.9551ZM187.698 74.913C186.552 74.913 185.615 74.0793 185.615 73.0372C185.615 72.5256 185.823 72.0519 186.219 71.7109C186.615 71.3509 187.135 71.1614 187.677 71.1614H187.781V74.913H187.698ZM189.823 80.3888H189.719V76.6183H189.823C190.365 76.6183 190.885 76.8077 191.302 77.1867C191.698 77.5277 191.906 78.0014 191.906 78.513C191.885 79.5362 190.948 80.3888 189.823 80.3888Z" fill="#2DAE5F"/>
<rect x="326" y="326" width="58" height="58" rx="7" fill="#191919" stroke="#333333" stroke-width="2"/>
<path d="M341.439 366.986V369.118H338.488C338.158 369.118 337.891 369.385 337.891 369.714V373.493C337.891 373.823 338.158 374.09 338.488 374.09H372.498C372.827 374.09 373.094 373.823 373.094 373.493V369.714C373.094 369.385 372.827 369.118 372.498 369.118H369.539V366.986C369.539 366.355 369.12 365.826 368.549 365.645V354.492C369.12 354.311 369.539 353.781 369.539 353.151V351.019H370.708C371.038 351.019 371.304 350.752 371.304 350.423V348.331H373.389C373.655 348.331 373.889 348.155 373.962 347.9C374.036 347.644 373.931 347.371 373.706 347.229L355.809 336C355.616 335.878 355.369 335.878 355.176 336L337.28 347.229C337.054 347.371 336.95 347.644 337.023 347.9C337.097 348.155 337.331 348.331 337.597 348.331H339.681V350.423C339.681 350.752 339.948 351.019 340.278 351.019H341.439V353.151C341.439 353.784 341.861 354.315 342.437 354.494V365.642C341.861 365.821 341.439 366.352 341.439 366.986ZM342.633 366.986C342.633 366.925 342.658 366.869 342.699 366.829L347.173 366.836C347.21 366.875 347.234 366.928 347.234 366.986V369.118H342.633V366.986H342.633ZM351.999 351.019V353.151C351.999 353.782 352.417 354.311 352.989 354.492V365.645C352.417 365.826 351.999 366.355 351.999 366.986V369.118H348.427V366.986C348.427 366.358 348.013 365.831 347.445 365.647V354.489C348.013 354.306 348.427 353.779 348.427 353.151V351.019H351.999ZM362.551 351.019V353.151C362.551 353.782 362.969 354.311 363.541 354.492V365.645C362.969 365.826 362.551 366.355 362.551 366.986V369.118H358.987V366.986C358.987 366.355 358.569 365.826 357.997 365.645V354.492C358.569 354.311 358.987 353.782 358.987 353.151V351.019H362.551ZM364.734 365.573V354.564H367.355V365.573H364.734ZM356.803 365.573H354.182V354.564H356.803V365.573ZM353.192 366.986C353.192 366.865 353.291 366.766 353.412 366.766C354.478 366.766 356.553 366.766 357.574 366.766C357.695 366.766 357.794 366.865 357.794 366.986V369.118H353.192V366.986ZM357.794 353.151C357.794 353.272 357.695 353.371 357.574 353.371H357.4H353.586H353.412C353.291 353.371 353.192 353.272 353.192 353.151V351.019H357.794V353.151ZM346.252 354.581V365.573H343.63V354.581H346.252ZM371.901 372.897H339.085V370.311C350.748 370.311 360.318 370.311 371.901 370.311V372.897ZM363.744 369.118V366.986C363.744 366.969 363.75 366.953 363.754 366.937L368.335 366.937C368.339 366.953 368.345 366.969 368.345 366.986V369.118H363.744V369.118ZM368.345 353.151C368.345 353.228 368.302 353.293 368.241 353.333C368.154 353.283 368.059 353.247 367.952 353.247H364.137C364.03 353.247 363.935 353.283 363.848 353.333C363.787 353.294 363.744 353.229 363.744 353.151V351.019H368.345V353.151ZM355.492 337.209L371.316 347.138C364.168 347.138 346.161 347.138 339.669 347.138L355.492 337.209ZM340.874 348.331H370.111V349.826C356.358 349.826 354.61 349.826 340.874 349.826V348.331ZM347.234 351.019V353.151C347.234 353.272 347.135 353.371 347.014 353.371H342.852C342.731 353.371 342.633 353.272 342.633 353.151V351.019H347.234Z" fill="#333333"/>
<path d="M355.494 346.343C357.269 346.343 358.712 344.899 358.712 343.125C358.712 341.351 357.269 339.908 355.494 339.908C353.72 339.908 352.277 341.351 352.277 343.125C352.277 344.899 353.72 346.343 355.494 346.343ZM355.494 341.101C356.611 341.101 357.518 342.009 357.518 343.125C357.518 344.241 356.611 345.149 355.494 345.149C354.378 345.149 353.471 344.241 353.471 343.125C353.471 342.009 354.378 341.101 355.494 341.101Z" fill="#333333"/>
<circle cx="302" cy="529" r="16" fill="#191919" stroke="#333333" stroke-width="2"/>
<path d="M297.849 528.891C299.677 528.891 300.873 527.607 300.873 525.568C300.873 523.512 299.669 522.272 297.849 522.272C296.021 522.272 294.817 523.512 294.817 525.577C294.817 527.616 296.012 528.891 297.849 528.891ZM298.948 535.148L307.544 522.466H305.645L297.041 535.148H298.948ZM297.849 527.405C297.146 527.405 296.671 526.799 296.671 525.577C296.671 524.338 297.146 523.767 297.849 523.767C298.552 523.767 299.018 524.338 299.018 525.577C299.018 526.799 298.544 527.405 297.849 527.405ZM306.744 535.333C308.572 535.333 309.767 534.05 309.767 532.011C309.767 529.945 308.563 528.706 306.744 528.706C304.916 528.706 303.711 529.954 303.711 532.011C303.711 534.059 304.907 535.333 306.744 535.333ZM306.744 533.839C306.041 533.839 305.566 533.241 305.566 532.011C305.566 530.771 306.041 530.2 306.744 530.2C307.447 530.2 307.913 530.78 307.913 532.011C307.913 533.241 307.438 533.839 306.744 533.839Z" fill="#333333"/>
<circle cx="442" cy="513" r="16" fill="#191919" stroke="#333333" stroke-width="2"/>
<path d="M437.849 512.891C439.677 512.891 440.873 511.607 440.873 509.568C440.873 507.512 439.669 506.272 437.849 506.272C436.021 506.272 434.817 507.512 434.817 509.577C434.817 511.616 436.012 512.891 437.849 512.891ZM438.948 519.148L447.544 506.466H445.645L437.041 519.148H438.948ZM437.849 511.405C437.146 511.405 436.671 510.799 436.671 509.577C436.671 508.338 437.146 507.767 437.849 507.767C438.552 507.767 439.018 508.338 439.018 509.577C439.018 510.799 438.544 511.405 437.849 511.405ZM446.744 519.333C448.572 519.333 449.767 518.05 449.767 516.011C449.767 513.945 448.563 512.706 446.744 512.706C444.916 512.706 443.711 513.954 443.711 516.011C443.711 518.059 444.907 519.333 446.744 519.333ZM446.744 517.839C446.041 517.839 445.566 517.241 445.566 516.011C445.566 514.771 446.041 514.2 446.744 514.2C447.447 514.2 447.913 514.78 447.913 516.011C447.913 517.241 447.438 517.839 446.744 517.839Z" fill="#333333"/>
<circle cx="529" cy="408" r="16" fill="#191919" stroke="#333333" stroke-width="2"/>
<path d="M524.849 407.891C526.677 407.891 527.873 406.607 527.873 404.568C527.873 402.512 526.669 401.272 524.849 401.272C523.021 401.272 521.817 402.512 521.817 404.577C521.817 406.616 523.012 407.891 524.849 407.891ZM525.948 414.148L534.544 401.466H532.645L524.041 414.148H525.948ZM524.849 406.405C524.146 406.405 523.671 405.799 523.671 404.577C523.671 403.338 524.146 402.767 524.849 402.767C525.552 402.767 526.018 403.338 526.018 404.577C526.018 405.799 525.544 406.405 524.849 406.405ZM533.744 414.333C535.572 414.333 536.767 413.05 536.767 411.011C536.767 408.945 535.563 407.706 533.744 407.706C531.916 407.706 530.711 408.954 530.711 411.011C530.711 413.059 531.907 414.333 533.744 414.333ZM533.744 412.839C533.041 412.839 532.566 412.241 532.566 411.011C532.566 409.771 533.041 409.2 533.744 409.2C534.447 409.2 534.913 409.78 534.913 411.011C534.913 412.241 534.438 412.839 533.744 412.839Z" fill="#333333"/>
<circle cx="513" cy="265" r="16" fill="#191919" stroke="#333333" stroke-width="2"/>
<path d="M508.849 264.891C510.677 264.891 511.873 263.607 511.873 261.568C511.873 259.512 510.669 258.272 508.849 258.272C507.021 258.272 505.817 259.512 505.817 261.577C505.817 263.616 507.012 264.891 508.849 264.891ZM509.948 271.148L518.544 258.466H516.645L508.041 271.148H509.948ZM508.849 263.405C508.146 263.405 507.671 262.799 507.671 261.577C507.671 260.338 508.146 259.767 508.849 259.767C509.552 259.767 510.018 260.338 510.018 261.577C510.018 262.799 509.544 263.405 508.849 263.405ZM517.744 271.333C519.572 271.333 520.767 270.05 520.767 268.011C520.767 265.945 519.563 264.706 517.744 264.706C515.916 264.706 514.711 265.954 514.711 268.011C514.711 270.059 515.907 271.333 517.744 271.333ZM517.744 269.839C517.041 269.839 516.566 269.241 516.566 268.011C516.566 266.771 517.041 266.2 517.744 266.2C518.447 266.2 518.913 266.78 518.913 268.011C518.913 269.241 518.438 269.839 517.744 269.839Z" fill="#333333"/>
<circle cx="407" cy="183" r="16" fill="#191919" stroke="#333333" stroke-width="2"/>
<path d="M402.849 182.891C404.677 182.891 405.873 181.607 405.873 179.568C405.873 177.512 404.669 176.272 402.849 176.272C401.021 176.272 399.817 177.512 399.817 179.577C399.817 181.616 401.012 182.891 402.849 182.891ZM403.948 189.148L412.544 176.466H410.645L402.041 189.148H403.948ZM402.849 181.405C402.146 181.405 401.671 180.799 401.671 179.577C401.671 178.338 402.146 177.767 402.849 177.767C403.552 177.767 404.018 178.338 404.018 179.577C404.018 180.799 403.544 181.405 402.849 181.405ZM411.744 189.333C413.572 189.333 414.767 188.05 414.767 186.011C414.767 183.945 413.563 182.706 411.744 182.706C409.916 182.706 408.711 183.954 408.711 186.011C408.711 188.059 409.907 189.333 411.744 189.333ZM411.744 187.839C411.041 187.839 410.566 187.241 410.566 186.011C410.566 184.771 411.041 184.2 411.744 184.2C412.447 184.2 412.913 184.78 412.913 186.011C412.913 187.241 412.438 187.839 411.744 187.839Z" fill="#333333"/>
<circle cx="270" cy="197" r="16" fill="#191919" stroke="#333333" stroke-width="2"/>
<path d="M265.849 196.891C267.677 196.891 268.873 195.607 268.873 193.568C268.873 191.512 267.669 190.272 265.849 190.272C264.021 190.272 262.817 191.512 262.817 193.577C262.817 195.616 264.012 196.891 265.849 196.891ZM266.948 203.148L275.544 190.466H273.645L265.041 203.148H266.948ZM265.849 195.405C265.146 195.405 264.671 194.799 264.671 193.577C264.671 192.338 265.146 191.767 265.849 191.767C266.552 191.767 267.018 192.338 267.018 193.577C267.018 194.799 266.544 195.405 265.849 195.405ZM274.744 203.333C276.572 203.333 277.767 202.05 277.767 200.011C277.767 197.945 276.563 196.706 274.744 196.706C272.916 196.706 271.711 197.954 271.711 200.011C271.711 202.059 272.907 203.333 274.744 203.333ZM274.744 201.839C274.041 201.839 273.566 201.241 273.566 200.011C273.566 198.771 274.041 198.2 274.744 198.2C275.447 198.2 275.913 198.78 275.913 200.011C275.913 201.241 275.438 201.839 274.744 201.839Z" fill="#333333"/>
<circle cx="184" cy="303" r="16" fill="#191919" stroke="#333333" stroke-width="2"/>
<path d="M179.849 302.891C181.677 302.891 182.873 301.607 182.873 299.568C182.873 297.512 181.669 296.272 179.849 296.272C178.021 296.272 176.817 297.512 176.817 299.577C176.817 301.616 178.012 302.891 179.849 302.891ZM180.948 309.148L189.544 296.466H187.645L179.041 309.148H180.948ZM179.849 301.405C179.146 301.405 178.671 300.799 178.671 299.577C178.671 298.338 179.146 297.767 179.849 297.767C180.552 297.767 181.018 298.338 181.018 299.577C181.018 300.799 180.544 301.405 179.849 301.405ZM188.744 309.333C190.572 309.333 191.767 308.05 191.767 306.011C191.767 303.945 190.563 302.706 188.744 302.706C186.916 302.706 185.711 303.954 185.711 306.011C185.711 308.059 186.907 309.333 188.744 309.333ZM188.744 307.839C188.041 307.839 187.566 307.241 187.566 306.011C187.566 304.771 188.041 304.2 188.744 304.2C189.447 304.2 189.913 304.78 189.913 306.011C189.913 307.241 189.438 307.839 188.744 307.839Z" fill="#333333"/>
<circle cx="194" cy="440" r="16" fill="#191919" stroke="#333333" stroke-width="2"/>
<path d="M189.849 439.891C191.677 439.891 192.873 438.607 192.873 436.568C192.873 434.512 191.669 433.272 189.849 433.272C188.021 433.272 186.817 434.512 186.817 436.577C186.817 438.616 188.012 439.891 189.849 439.891ZM190.948 446.148L199.544 433.466H197.645L189.041 446.148H190.948ZM189.849 438.405C189.146 438.405 188.671 437.799 188.671 436.577C188.671 435.338 189.146 434.767 189.849 434.767C190.552 434.767 191.018 435.338 191.018 436.577C191.018 437.799 190.544 438.405 189.849 438.405ZM198.744 446.333C200.572 446.333 201.767 445.05 201.767 443.011C201.767 440.945 200.563 439.706 198.744 439.706C196.916 439.706 195.711 440.954 195.711 443.011C195.711 445.059 196.907 446.333 198.744 446.333ZM198.744 444.839C198.041 444.839 197.566 444.241 197.566 443.011C197.566 441.771 198.041 441.2 198.744 441.2C199.447 441.2 199.913 441.78 199.913 443.011C199.913 444.241 199.438 444.839 198.744 444.839Z" fill="#333333"/>
<rect x="276" y="72" width="158" height="35" rx="8" fill="#F5F5F5"/>
<rect x="397" y="72" width="37" height="35" rx="8" fill="#F2994A"/>
<path d="M411.49 83.3174V96H415.964C419.743 96 421.967 93.6445 421.967 89.6367C421.967 85.6377 419.734 83.3174 415.964 83.3174H411.49ZM413.459 85.0137H415.779C418.46 85.0137 419.954 86.666 419.954 89.6543C419.954 92.6514 418.469 94.2949 415.779 94.2949H413.459V85.0137Z" fill="white"/>
<path d="M295.191 96V90.6914H300.641V89.0303H295.191V85.0137H301.142V83.3174H293.223V96H295.191ZM303.638 85.2598C304.244 85.2598 304.728 84.7676 304.728 84.1699C304.728 83.5635 304.244 83.0801 303.638 83.0801C303.031 83.0801 302.539 83.5635 302.539 84.1699C302.539 84.7676 303.031 85.2598 303.638 85.2598ZM302.688 96H304.587V86.7539H302.688V96ZM306.529 96H308.428V90.4629C308.428 89.1533 309.184 88.3359 310.405 88.3359C310.774 88.3359 311.108 88.3799 311.258 88.4414V86.6748C311.117 86.6484 310.88 86.6045 310.607 86.6045C309.518 86.6045 308.691 87.2461 308.384 88.3271H308.34V86.7539H306.529V96ZM312.269 89.373C312.269 90.7178 313.139 91.5615 314.896 91.9658L316.399 92.3174C317.41 92.5459 317.753 92.8975 317.753 93.4951C317.753 94.251 317.05 94.7256 315.907 94.7256C314.747 94.7256 314.088 94.251 313.912 93.2842H312.031C312.207 95.042 313.596 96.1758 315.907 96.1758C318.087 96.1758 319.66 95.0156 319.66 93.3281C319.66 91.9922 318.939 91.2539 317.05 90.8145L315.547 90.4717C314.545 90.2432 314.123 89.8477 314.123 89.2676C314.123 88.5293 314.809 88.0283 315.837 88.0283C316.9 88.0283 317.56 88.5908 317.665 89.4873H319.449C319.388 87.7822 317.99 86.5869 315.837 86.5869C313.71 86.5869 312.269 87.7207 312.269 89.373ZM321.69 84.5654V86.7539H320.346V88.2568H321.69V93.5654C321.69 95.3496 322.42 96.0615 324.292 96.0615C324.714 96.0615 325.136 96.0264 325.347 95.9736V94.4707C325.224 94.4971 324.916 94.5146 324.723 94.5146C323.949 94.5146 323.598 94.1543 323.598 93.3545V88.2568H325.355V86.7539H323.598V84.5654H321.69ZM334.048 96.1582C335.393 96.1582 336.447 95.4814 336.992 94.4268H337.027V96H338.873V83.3174H336.966V88.292H336.931C336.412 87.2725 335.357 86.6045 334.03 86.6045C331.71 86.6045 330.163 88.459 330.163 91.377C330.163 94.2949 331.71 96.1582 334.048 96.1582ZM334.549 88.2041C336.008 88.2041 336.983 89.4609 336.983 91.377C336.983 93.3105 336.008 94.5498 334.549 94.5498C333.046 94.5498 332.105 93.3281 332.105 91.377C332.105 89.4346 333.046 88.2041 334.549 88.2041ZM346.95 93.2842C346.695 94.0928 345.896 94.6377 344.814 94.6377C343.294 94.6377 342.327 93.5742 342.327 91.9658V91.8516H348.857V91.2012C348.857 88.3975 347.258 86.5869 344.691 86.5869C342.081 86.5869 340.411 88.5205 340.411 91.4209C340.411 94.3389 342.055 96.1758 344.771 96.1758C346.889 96.1758 348.488 94.9717 348.752 93.2842H346.95ZM344.691 88.1162C346.019 88.1162 346.915 89.1094 346.959 90.5244H342.336C342.433 89.127 343.364 88.1162 344.691 88.1162ZM355.256 96.1582C357.603 96.1582 359.114 94.3125 359.114 91.377C359.114 88.4502 357.594 86.6045 355.265 86.6045C353.955 86.6045 352.9 87.2549 352.347 88.3271H352.303V83.3174H350.404V96H352.25V94.4268H352.285C352.856 95.499 353.902 96.1582 355.256 96.1582ZM354.746 88.2041C356.24 88.2041 357.163 89.4346 357.163 91.377C357.163 93.3369 356.24 94.5498 354.746 94.5498C353.305 94.5498 352.294 93.3018 352.294 91.377C352.294 89.4697 353.305 88.2041 354.746 88.2041ZM361.153 84.5654V86.7539H359.809V88.2568H361.153V93.5654C361.153 95.3496 361.883 96.0615 363.755 96.0615C364.177 96.0615 364.599 96.0264 364.81 95.9736V94.4707C364.687 94.4971 364.379 94.5146 364.186 94.5146C363.412 94.5146 363.061 94.1543 363.061 93.3545V88.2568H364.818V86.7539H363.061V84.5654H361.153ZM370.127 96.1758C372.772 96.1758 374.513 94.3564 374.513 91.377C374.513 88.4062 372.764 86.5869 370.127 86.5869C367.49 86.5869 365.741 88.4062 365.741 91.377C365.741 94.3564 367.481 96.1758 370.127 96.1758ZM370.127 94.6113C368.642 94.6113 367.675 93.4336 367.675 91.377C367.675 89.3291 368.642 88.1514 370.127 88.1514C371.612 88.1514 372.579 89.3291 372.579 91.377C372.579 93.4336 371.621 94.6113 370.127 94.6113ZM375.98 96H377.879V90.4629C377.879 89.1533 378.635 88.3359 379.856 88.3359C380.226 88.3359 380.56 88.3799 380.709 88.4414V86.6748C380.568 86.6484 380.331 86.6045 380.059 86.6045C378.969 86.6045 378.143 87.2461 377.835 88.3271H377.791V86.7539H375.98V96Z" fill="black"/>
<rect x="46" y="167.189" width="158" height="35" rx="8" fill="#F5F5F5"/>
<rect x="167" y="167.189" width="37" height="35" rx="8" fill="#27AE60"/>
<path d="M186.764 191.4C189.682 191.4 191.668 189.862 192.151 187.243H190.191C189.796 188.772 188.539 189.678 186.772 189.678C184.443 189.678 182.967 187.806 182.967 184.844C182.967 181.908 184.461 180.019 186.764 180.019C188.486 180.019 189.84 181.082 190.191 182.708H192.143C191.809 180.062 189.638 178.296 186.764 178.296C183.222 178.296 180.954 180.827 180.954 184.844C180.954 188.887 183.204 191.4 186.764 191.4Z" fill="white"/>
<path d="M69.4531 189.484H63.3711V185.547H69.1279V183.912H63.3711V180.203H69.4531V178.507H61.4023V191.189H69.4531V189.484ZM71.2461 191.189H73.1445V185.802C73.1445 184.369 74.0059 183.42 75.3418 183.42C76.6602 183.42 77.3105 184.185 77.3105 185.573V191.189H79.2178V185.204C79.2178 183.086 78.0488 181.785 76.0098 181.785C74.5859 181.785 73.6016 182.436 73.1006 183.49H73.0566V181.943H71.2461V191.189ZM84.5264 191.348C85.8711 191.348 86.9258 190.671 87.4707 189.616H87.5059V191.189H89.3516V178.507H87.4443V183.481H87.4092C86.8906 182.462 85.8359 181.794 84.5088 181.794C82.1885 181.794 80.6416 183.648 80.6416 186.566C80.6416 189.484 82.1885 191.348 84.5264 191.348ZM85.0273 183.394C86.4863 183.394 87.4619 184.65 87.4619 186.566C87.4619 188.5 86.4863 189.739 85.0273 189.739C83.5244 189.739 82.584 188.518 82.584 186.566C82.584 184.624 83.5244 183.394 85.0273 183.394ZM102.896 185.125C102.729 183.306 101.278 181.776 98.8965 181.776C96.2686 181.776 94.5459 183.631 94.5459 186.566C94.5459 189.555 96.2686 191.365 98.9141 191.365C101.138 191.365 102.711 190.029 102.913 188.061H101.085C100.865 189.133 100.101 189.774 98.9316 189.774C97.4551 189.774 96.4795 188.597 96.4795 186.566C96.4795 184.58 97.4463 183.358 98.9141 183.358C100.153 183.358 100.892 184.141 101.085 185.125H102.896ZM104.258 191.189H106.156V185.652C106.156 184.343 106.912 183.525 108.134 183.525C108.503 183.525 108.837 183.569 108.986 183.631V181.864C108.846 181.838 108.608 181.794 108.336 181.794C107.246 181.794 106.42 182.436 106.112 183.517H106.068V181.943H104.258V191.189ZM115.886 188.474C115.631 189.282 114.831 189.827 113.75 189.827C112.229 189.827 111.263 188.764 111.263 187.155V187.041H117.793V186.391C117.793 183.587 116.193 181.776 113.627 181.776C111.017 181.776 109.347 183.71 109.347 186.61C109.347 189.528 110.99 191.365 113.706 191.365C115.824 191.365 117.424 190.161 117.688 188.474H115.886ZM113.627 183.306C114.954 183.306 115.851 184.299 115.895 185.714H111.271C111.368 184.316 112.3 183.306 113.627 183.306ZM122.741 191.348C124.086 191.348 125.141 190.671 125.686 189.616H125.721V191.189H127.566V178.507H125.659V183.481H125.624C125.105 182.462 124.051 181.794 122.724 181.794C120.403 181.794 118.856 183.648 118.856 186.566C118.856 189.484 120.403 191.348 122.741 191.348ZM123.242 183.394C124.701 183.394 125.677 184.65 125.677 186.566C125.677 188.5 124.701 189.739 123.242 189.739C121.739 189.739 120.799 188.518 120.799 186.566C120.799 184.624 121.739 183.394 123.242 183.394ZM130.528 180.449C131.135 180.449 131.618 179.957 131.618 179.359C131.618 178.753 131.135 178.27 130.528 178.27C129.922 178.27 129.43 178.753 129.43 179.359C129.43 179.957 129.922 180.449 130.528 180.449ZM129.579 191.189H131.478V181.943H129.579V191.189ZM133.974 179.755V181.943H132.629V183.446H133.974V188.755C133.974 190.539 134.703 191.251 136.575 191.251C136.997 191.251 137.419 191.216 137.63 191.163V189.66C137.507 189.687 137.199 189.704 137.006 189.704C136.232 189.704 135.881 189.344 135.881 188.544V183.446H137.639V181.943H135.881V179.755H133.974ZM142.947 191.365C145.593 191.365 147.333 189.546 147.333 186.566C147.333 183.596 145.584 181.776 142.947 181.776C140.311 181.776 138.562 183.596 138.562 186.566C138.562 189.546 140.302 191.365 142.947 191.365ZM142.947 189.801C141.462 189.801 140.495 188.623 140.495 186.566C140.495 184.519 141.462 183.341 142.947 183.341C144.433 183.341 145.399 184.519 145.399 186.566C145.399 188.623 144.441 189.801 142.947 189.801ZM148.801 191.189H150.699V185.652C150.699 184.343 151.455 183.525 152.677 183.525C153.046 183.525 153.38 183.569 153.529 183.631V181.864C153.389 181.838 153.151 181.794 152.879 181.794C151.789 181.794 150.963 182.436 150.655 183.517H150.611V181.943H148.801V191.189Z" fill="black"/>
<defs>
<linearGradient id="paint0_linear" x1="150.5" y1="98.5" x2="328" y2="30" gradientUnits="userSpaceOnUse">
<stop stop-color="#27AE60"/>
<stop offset="1" stop-color="#F79E1B"/>
</linearGradient>
<radialGradient id="paint1_radial" cx="0" cy="0" r="1" gradientUnits="userSpaceOnUse" gradientTransform="translate(325) rotate(47.9918) scale(55.4227)">
<stop stop-color="#32A9FF"/>
<stop offset="1" stop-color="#1B1871"/>
</radialGradient>
<radialGradient id="paint2_radial" cx="0" cy="0" r="1" gradientUnits="userSpaceOnUse" gradientTransform="translate(95.1914 95.1895) rotate(47.9918) scale(55.4227)">
<stop stop-color="#32A9FF"/>
<stop offset="1" stop-color="#1B1871"/>
</radialGradient>
</defs>
</svg>
